<?xml version="1.0" standalone="no"?>
<!DOCTYPE svg PUBLIC "-//W3C//DTD SVG 1.1//EN" "http://www.w3.org/Graphics/SVG/1.1/DTD/svg11.dtd" >
<svg xmlns="http://www.w3.org/2000/svg" xmlns:xlink="http://www.w3.org/1999/xlink" version="1.1">
<metadata>
Created by FontForge 20200511 at Mon Nov 28 22:41:43 2022
 By convertio
</metadata>
<defs>
<font id="icomoon" horiz-adv-x="1024" >
  <font-face 
    font-family="icomoon"
    font-weight="400"
    font-stretch="normal"
    units-per-em="1024"
    panose-1="0 0 0 0 0 0 0 0 0 0"
    ascent="819"
    descent="-205"
    x-height="771"
    cap-height="771"
    bbox="-151 -265 1408 1010"
    underline-thickness="0"
    underline-position="0"
    unicode-range="U+0001-FFFD"
  />
<missing-glyph 
 />
    <glyph glyph-name=".notdef" unicode="&#xfffd;" 
 />
    <glyph glyph-name="glyph1" horiz-adv-x="0" 
d="M0 0v0v0v0z" />
    <glyph glyph-name="glyph1" horiz-adv-x="0" 
d="M0 0v0v0v0z" />
    <glyph glyph-name="uni0001" horiz-adv-x="0" 
d="M0 0v0v0v0z" />
    <glyph glyph-name="space" unicode=" " horiz-adv-x="256" 
d="M0 0v0v0v0z" />
    <glyph glyph-name="exclam" unicode="!" horiz-adv-x="241" 
d="M33 263v508h175v-508h-175zM33 13v174h175v-174h-175z" />
    <glyph glyph-name="quotedbl" unicode="&#x22;" 
d="M861 19v107h-215q-97 -122 -275 -122q-161 0 -275 112q-114 114 -114 277q0 165 116 274q115 108 281 108q191 0 300 -137l-98 -156q-70 127 -207 127q-78 0 -136 -53q-67 -60 -67 -163q0 -108 68 -169q57 -53 136 -53q113 0 175 108h-215v151h310l208 331h197v-742h-189
zM861 483h-2l-123 -206h125v206z" />
    <glyph glyph-name="numbersign" unicode="#" horiz-adv-x="870" 
d="M637 262v239l-148 -239h148zM228 186l354 585h253v-758h-198v105h-235l-61 -105h-306v758h193v-585z" />
    <glyph glyph-name="dollar" unicode="$" horiz-adv-x="587" 
d="M241 781v61h103v-60q184 -25 195 -233h-181v2q0 72 -71 72q-64 0 -64 -57q0 -50 112 -94q111 -43 166 -102q55 -58 55 -135v-4q-2 -104 -78 -169q-57 -50 -134 -60v-68h-103v70q-74 12 -127 58q-79 67 -79 177v25h186q0 -102 77 -102q70 0 70 70q0 32 -29 53
q-33 23 -120 59q-80 31 -109 57q-71 61 -71 161q0 102 76 164q53 44 126 55v0z" />
    <glyph glyph-name="percent" unicode="%" horiz-adv-x="1103" 
d="M360 771v-758h-193v577h-142v181h335zM720 771v-181h-108v-308l296 489h231l-458 -758h-266v758h305z" />
    <glyph glyph-name="ampersand" unicode="&#x26;" horiz-adv-x="776" 
d="M678 318q-25 -58 -57 -100l103 -107l-116 -114l-89 93q-106 -93 -226 -93q-100 0 -174 60q-79 63 -79 161q0 112 140 207q-71 74 -71 164q0 85 63 142q60 54 146 54q83 0 140 -51q59 -55 59 -135q0 -102 -104 -175l89 -90l55 124h179zM319 648q-46 0 -46 -50
q0 -37 43 -82q48 47 48 84q0 48 -45 48zM285 323q-59 -46 -59 -88q0 -35 27 -55q25 -20 60 -20q58 0 93 41z" />
    <glyph glyph-name="quotesingle" unicode="'" 
d="M807 606v-600h-198v169h-2q-20 -78 -78 -126q-71 -57 -185 -57q-150 0 -219 86q-50 62 -50 159v26h196q0 -106 76 -106q31 0 51 20q19 20 19 47q0 63 -133 121q-91 41 -115 60q-75 59 -75 159q0 102 74 159q71 57 193 57h67v-174h-57q-80 0 -80 -51q0 -29 32 -51
q24 -17 109 -53q160 -68 177 -176v331h-147v174h496v-174h-151z" />
    <glyph glyph-name="parenleft" unicode="(" horiz-adv-x="1233" 
d="M1207 771v-758h-197v105h-235l-61 -105h-231l458 758h266zM1010 262v239l-148 -239h148zM350 549v2q0 72 -71 72q-64 0 -64 -57q0 -50 112 -94q111 -43 166 -102q55 -58 55 -135v-4q-2 -104 -78 -169q-73 -64 -178 -64q-113 0 -187 64q-78 67 -78 177v25h186
q0 -102 77 -102q69 0 69 70q0 32 -28 53q-33 23 -120 59q-80 31 -110 57q-70 61 -70 161q0 102 75 164q71 59 178 59q235 0 246 -236h-180z" />
    <glyph glyph-name="parenright" unicode=")" horiz-adv-x="1011" 
d="M979 771v-758h-198v105h-234l-62 -105h-220l458 758h256zM781 262v239l-147 -239h147zM34 771h434v-167h-241v-125h200v-159h-199v-307h-194v758z" />
    <glyph glyph-name="asterisk" unicode="*" horiz-adv-x="1023" 
d="M830 50h263v-199h-605q-73 0 -139 15q-65 15 -121 45t-102 75q-45 45 -76 105q-29 60 -41 123t-7.5 124.5t25.5 118.5q21 58 60 107q72 90 166 134q95 44 194.5 45.5t194.5 -38.5q96 -40 169 -119l-116 -191q-78 99 -161 124q-82 25 -151 1t-115 -83t-50 -128
q-4 -83 42 -146t114 -88.5t145 -6.5q76 19 133 101h-215v183h309l224 368h266l-406 -670v0z" />
    <glyph glyph-name="plus" unicode="+" 
d="M-57 386v-381h137h102q46 1 55 2q59 4 107 21t89 47q13 10 32 29q20 20 31 34q34 43 53 88t27 102q3 16 3 60q-1 44 -3 60q-11 64 -36 115q-25 52 -67 97q-36 37 -80 61q-45 25 -99 36q-30 6 -56 7q-27 1 -146 1l-149 1v-380zM239 590q33 -8 58 -24q25 -17 45 -44
q33 -44 40 -104q8 -60 -12 -116q-14 -41 -43 -71q-30 -31 -67 -44q-16 -5 -28 -6q-12 -2 -48 -3h-45v416l45 -1q25 0 37 -1t18 -2v0zM719 456q-39 -64 -76 -126q-38 -62 -69 -113q-31 -52 -53 -89q-23 -37 -31 -52q-18 -28 -30 -49l-12 -21h33v0l82 -1h116l31 53l30 52h234
v-105h200v761h-268zM974 257q0 -1 -21 -1q-22 0 -52 1h-72l72 118l73 117v-235z" />
    <glyph glyph-name="comma" unicode="," 
d="M797 13v109h-219l71 -109h-370l74 109l-137 218h-2v-327h-193v758h193v-348h2l238 348h212l-261 -381l64 -100l330 481h191v-758h-193zM797 486h-2l-125 -210h127v210z" />
    <glyph glyph-name="hyphen" unicode="-" 
d="M736 320q0 -47 -18 -89t-49 -72q-31 -31 -72 -49q-42 -18 -89 -18t-89 18q-41 18 -72 48q-31 31 -49 73t-18 89t18 89q18 41 49 72t72 49q42 18 89 18t89 -18q41 -18 72 -49t49 -72q18 -42 18 -89zM1014 325q-1 105 -41 197q-41 92 -110 160q-69 69 -161 109
q-91 40 -194 41v0q-103 -1 -195 -41q-93 -41 -162 -110t-109 -162q-41 -93 -40 -198v0q-1 -106 39 -199t109 -162q70 -70 162 -111q92 -40 196 -41v0q104 1 197 42q92 41 161 111q70 71 110 165t38 199v0zM897 320v0v0v0q0 -49 -4 -98t-12 -98q-6 -41 -19 -57t-55 -24
q-27 -6 -63 -10q-37 -5 -76 -9q-40 -4 -82 -6q-41 -2 -78 -1v-1q-37 0 -79 2q-41 2 -81 5q-40 4 -76 9t-63 11q-43 8 -55 24q-13 16 -19 57q-8 49 -12 98t-4 98v0q0 49 4 98t12 98q6 41 18 57q13 16 56 24q27 6 63 11t76 8q40 4 81 6q42 2 79 1v0q37 0 78 -2q42 -2 81 -5
q40 -4 77 -9q36 -5 63 -10q42 -9 55 -25t19 -56q8 -49 12 -98t4 -98v0v0v0v0z" />
    <glyph glyph-name="period" unicode="." 
d="M-60 388v-385h152h115q46 1 54 1q20 2 42 7t32 10q1 1 3 2t3 1q2 0 11 4q10 5 19 11q10 6 29 25q20 19 27 29q13 16 22 38t14 46t5 51q-1 27 -6 48q-6 25 -14 45t-19 36q-5 8 -22 26t-27 26l-9 7l7 5q8 6 18 16q11 10 16 18q7 10 14 25t11 30q3 10 3 17q1 8 1 28
q0 24 -1 34t-7 29q-6 20 -14 35t-25 37q-10 13 -19 21q-10 9 -30 22q-16 11 -30 17q-15 7 -32 12q-26 7 -48 8q-23 2 -145 2l-150 1v-385zM204 601q20 -3 34 -17q15 -15 19 -35q4 -19 -4 -37q-9 -19 -27 -28q-10 -5 -20 -7t-34 -2h-27v127h24h20q10 -1 15 -2v1zM227 319
q5 -1 10 -3t8 -4q7 -4 15 -13t12 -18q4 -8 4 -12q1 -5 1 -19v-18q-1 -6 -3 -11q-5 -9 -10 -16q-6 -7 -13 -11q-15 -11 -27 -13q-12 -3 -45 -3h-34v145h35h32q8 -1 15 -4v0zM854 771q-1 -1 -5 -7t-8 -14q-5 -8 -11 -18t-10 -16t-9 -15q-6 -9 -9 -14q-3 -6 -7 -13
q-4 -8 -7 -12t-10 -16l-16 -26t-17 -28t-14 -24q-12 -19 -29 -47q-17 -29 -35 -59q-8 -12 -15 -24q-8 -12 -11 -17t-7 -12t-7 -13q-3 -5 -6 -11l-6 -9q-4 -6 -22 -35q-18 -30 -22 -38q-5 -8 -18 -30t-23 -36q-4 -7 -9 -15q-5 -9 -7 -13q-5 -9 -20 -34q-16 -25 -26 -41
q-3 -6 -8 -13q-5 -8 -8 -14t-7 -12q-4 -7 -6 -11q-8 -12 -27 -45q-20 -33 -20 -34q0 -2 22 -2h212l7 12q16 25 30 49q14 25 18 33l7 11h233v-105h203v770h-134h-108q-28 -1 -28 -2v0zM921 258h-71l-70 1l7 11q3 5 7 11q4 7 6 12q3 4 6 9q3 6 5 9q3 3 10 15q8 13 17 27l39 65
q13 21 23 36q6 9 10 17q5 8 7 12l4 8v-233z" />
    <glyph glyph-name="slash" unicode="/" 
d="M788 13v109h-219l-69 -112q-45 -12 -95 -12q-173 0 -289 121q-110 115 -110 274q0 154 105 268q115 124 292 124q147 0 251 -86l-105 -154q-55 70 -148 70q-89 0 -147 -69q-55 -63 -55 -152q0 -84 49 -148q50 -64 130 -77l412 602h192v-758h-194zM788 486h-2l-125 -210
h127v210z" />
    <glyph glyph-name="zero" unicode="0" horiz-adv-x="844" 
d="M815 392q0 -163 -115 -278q-115 -116 -278 -116t-278 116q-115 115 -115 278q0 162 115 278q115 115 278 115t278 -115q115 -116 115 -278zM422 591q-83 0 -141 -58q-59 -58 -59 -141q0 -82 59 -141q58 -59 141 -59t141 59q59 59 59 141q0 83 -59 141q-58 58 -141 58v0z
" />
    <glyph glyph-name="one" unicode="1" horiz-adv-x="373" 
d="M151 13v595h-124v163h317v-758h-193z" />
    <glyph glyph-name="two" unicode="2" horiz-adv-x="602" 
d="M40 13v150q157 103 231 185q105 113 105 193q0 33 -20 53q-19 21 -52 21q-81 0 -87 -120h-184q3 110 45 174q75 116 233 116q175 0 239 -133q19 -44 19 -87q0 -169 -252 -389h257v-163h-534z" />
    <glyph glyph-name="three" unicode="3" horiz-adv-x="617" 
d="M499 62q-83 -64 -191 -64q-166 0 -236 107q-33 50 -42 134h195q16 -71 88 -71q82 0 82 85q0 59 -62 73q-21 4 -108 4v143q62 0 85 9q43 15 43 66q0 67 -53 67q-57 0 -59 -66h-191q1 110 77 174q72 62 182 62q95 0 164 -54q74 -60 74 -153q0 -104 -101 -159
q143 -48 143 -183q0 -104 -90 -174z" />
    <glyph glyph-name="four" unicode="4" horiz-adv-x="633" 
d="M535 146v-133h-186v133h-334v141l339 484h181v-474h83v-151h-83zM361 535h-2l-149 -238h151v238z" />
    <glyph glyph-name="five" unicode="5" horiz-adv-x="633" 
d="M584 166q-73 -169 -269 -169q-107 0 -186 57q-83 59 -102 162h194q34 -48 89 -48q42 0 72 30q31 30 31 71q0 44 -30 71q-30 28 -74 28q-71 0 -99 -65l-157 39l66 429h419v-163h-271l-16 -104q41 23 102 23q169 0 233 -153q20 -49 20 -101q0 -55 -22 -107v0z" />
    <glyph glyph-name="six" unicode="6" horiz-adv-x="633" 
d="M529 80q-84 -82 -208 -82q-131 0 -215 81q-84 82 -84 212q0 101 69 203l189 277h224l-167 -229l2 -2q11 4 37 4q104 0 173 -77q65 -73 65 -180q0 -125 -85 -207v0zM390 346q-31 28 -76 28q-43 0 -72 -28q-30 -29 -30 -72q0 -44 29 -75t73 -31t75 29q32 30 32 74
q0 45 -31 75v0z" />
    <glyph glyph-name="seven" unicode="7" horiz-adv-x="557" 
d="M260 13h-213l280 595h-294v163h493v-149z" />
    <glyph glyph-name="eight" unicode="8" horiz-adv-x="614" 
d="M497 63q-80 -65 -189 -65q-108 0 -189 65q-88 70 -88 175q0 140 119 192q-74 56 -74 142q0 95 69 156q66 57 162 57q95 0 162 -57q70 -60 70 -154q0 -86 -74 -144q119 -51 119 -192q0 -105 -87 -175v0zM356 609q-20 19 -48 19q-29 0 -50 -20q-20 -21 -20 -49
q0 -30 19 -51q19 -19 49 -19t50 21q21 21 21 51q0 27 -21 48zM367 316q-24 26 -60 26q-37 0 -59 -25q-24 -25 -24 -62q0 -36 25 -61q24 -26 61 -26q34 0 58 27q22 26 22 59q0 36 -23 62z" />
    <glyph glyph-name="nine" unicode="9" horiz-adv-x="633" 
d="M544 290l-189 -277h-224l167 229l-2 2q-11 -4 -37 -4q-51 0 -100 25q-139 68 -139 232q0 125 85 207q84 81 209 81q152 0 239 -99q63 -72 63 -186q0 -103 -72 -210v0zM393 585q-29 30 -75 30q-43 0 -73 -29q-31 -29 -31 -72q0 -44 30 -74q29 -30 74 -30q44 0 74 28
q31 28 31 72q0 46 -30 75z" />
    <glyph glyph-name="colon" unicode=":" 
d="M-151 383v-387l141 1q115 0 136 1q22 2 45 10q21 6 36 16q16 10 33 27l12 12v0l7 8q3 4 -7 -16t-23 -45l-7 -13h204l54 106h206v-106h604v167h-219v0l-38 1l24 60v0l110 272q21 50 39 96q19 46 33 81q15 36 23 58q9 22 10 25l6 13h-189l-228 -604v302l-1 302h-234l-7 -13
q-1 -2 -15 -29t-36 -70q-23 -43 -53 -100t-62 -120q-33 -63 -62 -118q-29 -56 -51 -97q-22 -42 -35 -66l-12 -24q-1 0 0 2t2 5q6 19 9 47q3 29 1 53q-4 51 -23 91q-19 41 -52 72l-10 10q9 7 16 14q8 8 12 13q28 36 34 87q6 52 -11 104q-15 45 -48 79q-33 35 -75 49
q-23 8 -43 9q-21 1 -127 2l-129 1v-388zM87 597q13 -4 23 -18t13 -30q3 -14 0 -30q-4 -16 -12 -27q-10 -13 -22 -17q-13 -5 -40 -5h-25v132l28 -1q15 -1 23 -1q8 -1 12 -3v0zM686 371v-119h-64h-45l-18 1q0 2 20 39t43 81q24 45 44 81l20 37v-120zM102 315q20 -10 31 -30
q11 -21 9 -46q-2 -23 -13 -40t-30 -25q-4 -2 -11 -2q-8 -1 -30 -1l-34 -1v151l68 -1l10 -6v1z" />
    <glyph glyph-name="semicolon" unicode=";" 
d="M58 395v-377h428v7q0 4 4 13q5 9 22 39l27 45h231v-104l198 1l1 377v376l-266 -1l-353 -585h-99v586h-193v-377zM770 267h-72l-71 1l142 231l1 -116v-116z" />
    <glyph glyph-name="less" unicode="&#x3c;" horiz-adv-x="1433" 
d="M451 771h193v-385l227 385h231l-458 -758h-193v389l-229 -389h-193v758h193v-385zM1408 771v-758h-198v105h-234l-62 -105h-216l474 758h236zM1210 262v239l-147 -239h147z" />
    <glyph glyph-name="equal" unicode="=" 
d="M512 -192q106 0 199 40q93 41 162 110q70 70 111 163q40 93 40 199t-40 199q-41 93 -110 162q-70 70 -163 111q-93 40 -199 40t-199 -40q-93 -41 -162 -110q-70 -70 -111 -163q-40 -93 -40 -199t40 -199q41 -93 110 -162q70 -70 163 -111q93 -40 199 -40zM110 124
q-5 48 -6 97t-1 99t1 99t6 97q3 26 16 34q13 9 37 12q42 4 85 7q44 3 88 4q44 2 89 2q44 1 87 1t87 -1q45 0 89 -1q44 -2 88 -5q43 -3 85 -7q24 -3 37 -11q13 -9 16 -35q5 -48 6 -97t1 -99t-1 -99t-6 -97q-3 -26 -16 -34q-13 -9 -37 -12q-42 -4 -85 -7q-44 -3 -88 -4
q-44 -2 -89 -2q-44 -1 -87 -1t-87 1q-45 0 -89 1q-44 2 -88 5q-43 3 -85 7q-24 3 -37 11q-13 9 -16 35v0zM512 114q43 0 81 16q37 16 65 44q29 28 45 66q16 37 16 80t-16 80q-16 38 -44 66q-29 28 -66 44q-38 16 -81 16t-81 -16q-37 -16 -65 -44q-29 -28 -45 -66
q-16 -37 -16 -80t16 -80q16 -38 44 -66q29 -28 66 -44q38 -16 81 -16z" />
    <glyph glyph-name="greater" unicode="&#x3e;" horiz-adv-x="1098" 
d="M528 771h221l-458 -758h-256v758h197v-489zM1066 771v-758h-198v105h-234l-62 -105h-220l458 758h256zM868 262v239l-147 -239h147z" />
    <glyph glyph-name="question" unicode="?" horiz-adv-x="606" 
d="M470 388q-96 -92 -100 -135h-179q2 76 90 163q87 87 87 130q0 64 -60 64q-42 0 -58 -31q-11 -20 -12 -68h-188q-1 7 -1 19q0 113 79 185q76 70 190 70q156 0 222 -123q24 -46 24 -94q0 -92 -94 -180v0zM191 13v174h179v-174h-179z" />
    <glyph glyph-name="at" unicode="@" 
d="M830 50h263v-199h-605q-73 0 -139 15q-65 15 -121 45t-102 75q-45 45 -76 105q-29 60 -41 123t-7.5 124.5t25.5 118.5q21 58 60 107q72 90 166 134q95 44 194.5 45.5t194.5 -38.5q96 -40 169 -119l-116 -191q-78 99 -161 124q-82 25 -151 1t-115 -83t-50 -128
q-4 -83 42 -146t114 -88.5t145 -6.5q76 19 133 101l94 183l224 368h266l-406 -670v0z" />
    <glyph glyph-name="A" unicode="A" horiz-adv-x="751" 
d="M296 771l459 -758h-231l-62 105h-235v-105h-196v758h265zM375 262l-148 239v-239h148z" />
    <glyph glyph-name="B" unicode="B" horiz-adv-x="592" 
d="M302 771q81 0 138 -39q57 -38 80 -100q14 -38 14 -73q0 -24 -7 -48q-15 -59 -67 -91q62 -43 86 -111q13 -39 13 -78q0 -30 -7 -59q-18 -69 -76 -114q-57 -44 -146 -45h-290v758h262zM239 182h57q38 0 58 22q21 22 21 53q-1 30 -21 51q-22 23 -58 23h-57v-149zM287 477
q32 0 50 19q17 19 17 45q0 27 -18 46t-49 19h-48v-129h48z" />
    <glyph glyph-name="C" unicode="C" horiz-adv-x="581" 
d="M550 571q-54 32 -113 32q-86 0 -146 -60q-61 -60 -61 -145t61 -145q60 -60 146 -60q64 0 113 34v-199q-54 -15 -116 -15q-166 0 -283 113q-118 113 -118 273t118 273q117 113 283 113q62 0 116 -16v-198z" />
    <glyph glyph-name="D" unicode="D" horiz-adv-x="690" 
d="M30 13v758h256q177 0 278 -112q101 -111 101 -267q0 -157 -101 -268t-278 -111h-256zM223 183h60q86 0 137 61t51 148t-51 148t-137 61h-60v-418z" />
    <glyph glyph-name="E" unicode="E" horiz-adv-x="468" 
d="M33 771h406v-166h-213v-123h213v-165h-213v-138h213v-166h-406v758z" />
    <glyph glyph-name="F" unicode="F" horiz-adv-x="497" 
d="M34 771h434v-167h-241v-166h241v-159h-240v-266h-194v758z" />
    <glyph glyph-name="G" unicode="G" horiz-adv-x="857" 
d="M823 407q0 -85 -30 -158t-83 -126q-53 -54 -125 -84q-73 -30 -158 -30q-82 0 -154 30t-125 82q-54 52 -85 124q-30 71 -30 153q0 84 31 154t85 120q55 51 127 80q72 28 154 28q60 0 119 -19q59 -18 109 -52q51 -35 89 -84q37 -48 54 -108h-213q-25 46 -68 71
q-43 26 -95 26q-46 0 -83 -17q-37 -18 -64 -47q-27 -30 -41 -69q-15 -39 -15 -83q0 -45 14 -86q14 -40 40 -70q27 -31 65 -49q37 -18 85 -18q61 0 110 29q50 29 67 91h-221v151h440q1 -10 1 -19v-20z" />
    <glyph glyph-name="H" unicode="H" horiz-adv-x="655" 
d="M428 13v293h-197v-293h-193v758h193v-275h197v275h194v-758h-194z" />
    <glyph glyph-name="I" unicode="I" horiz-adv-x="264" 
d="M38 13v758h193v-758h-193z" />
    <glyph glyph-name="J" unicode="J" horiz-adv-x="587" 
d="M557 771v-502q0 -116 -75 -193q-75 -78 -187 -78q-111 0 -187 68q-77 67 -77 198h193v-20q0 -35 20 -57q19 -23 50 -23q30 0 50 23t20 60v524h193z" />
    <glyph glyph-name="K" unicode="K" horiz-adv-x="685" 
d="M434 13l-209 327v-327h-193v758h193v-341l216 341h203l-251 -378l267 -380h-226z" />
    <glyph glyph-name="L" unicode="L" horiz-adv-x="476" 
d="M25 18h428v167h-236v588h-192v-755z" />
    <glyph glyph-name="M" unicode="M" horiz-adv-x="1077" 
d="M224 398v-385h-193v758h193l229 -390v390h193l458 -758h-231l-227 385v-385h-193z" />
    <glyph glyph-name="N" unicode="N" horiz-adv-x="718" 
d="M484 13l-258 426v-426h-185v758h191l263 -435v435h185v-758h-196z" />
    <glyph glyph-name="O" unicode="O" horiz-adv-x="844" 
d="M815 392q0 -163 -115 -278q-115 -116 -278 -116t-278 116q-115 115 -115 278q0 162 115 278q115 115 278 115t278 -115q115 -116 115 -278zM422 591q-83 0 -141 -58q-59 -58 -59 -141q0 -82 59 -141q58 -59 141 -59t141 59q59 59 59 141q0 83 -59 141q-58 58 -141 58v0z
" />
    <glyph glyph-name="P" unicode="P" horiz-adv-x="602" 
d="M217 264v-251h-185v758h279q108 0 184 -72q76 -71 76 -178q0 -118 -76 -188q-76 -69 -184 -69h-94zM296 420q38 0 64 26q26 27 26 63q0 38 -26 65t-64 27h-79v-181h79z" />
    <glyph glyph-name="Q" unicode="Q" horiz-adv-x="844" 
d="M251 288q12 -19 30 -37q58 -59 141 -59q13 0 25 1q-110 95 -190 95h-6zM615 49q-86 -51 -193 -51q-163 0 -278 116q-115 115 -115 278q0 162 115 278q115 115 278 115t278 -115q115 -116 115 -278q0 -125 -69 -223q29 -15 45 -15h24v-153h-48q-72 0 -152 48v0zM595 292
q27 44 27 100q0 83 -59 141q-58 58 -141 58t-141 -58q-39 -39 -53 -89q27 6 50 6q147 0 308 -148q4 -6 9 -10v0z" />
    <glyph glyph-name="R" unicode="R" horiz-adv-x="614" 
d="M0 -192v1022h264l70 1q71 2 154.5 -30t150.5 -115q68 -83 61 -254q-2 -55 -17 -100t-39.5 -80.5t-55.5 -62.5q-32 -27 -66 -47q-2 -2 32 -53q34 -52 75.5 -114t76.5 -113l34 -51l-315 1l-161 249v-253h-264zM322 342q57 0 100.5 35t43.5 93q0 57 -41 98t-98 41h-40.5
h-29.5v-266l31.5 -0.5t33.5 -0.5v0z" />
    <glyph glyph-name="S" unicode="S" horiz-adv-x="587" 
d="M358 549v2q0 72 -71 72q-64 0 -64 -57q0 -50 112 -94q111 -43 166 -102q55 -58 55 -135v-4q-2 -104 -78 -169q-72 -64 -178 -64q-113 0 -186 64q-79 67 -79 177v25h186q0 -102 77 -102q70 0 70 70q0 32 -29 53q-33 23 -120 59q-80 31 -109 57q-71 61 -71 161
q0 102 76 164q70 59 177 59q235 0 247 -236h-181z" />
    <glyph glyph-name="T" unicode="T" horiz-adv-x="511" 
d="M353 590v-577h-193v577h-150v181h492v-181h-149z" />
    <glyph glyph-name="U" unicode="U" horiz-adv-x="637" 
d="M417 771h193v-467q0 -120 -85 -206q-85 -85 -206 -85q-120 0 -205 85q-85 86 -85 206v467h193v-481q0 -40 29 -68q29 -29 68 -29q40 0 69 29q29 28 29 68v481z" />
    <glyph glyph-name="V" unicode="V" horiz-adv-x="751" 
d="M525 282v489h198v-758h-266l-458 758h230z" />
    <glyph glyph-name="W" unicode="W" horiz-adv-x="1077" 
d="M859 386v385h194v-758h-194l-228 389v-389h-194l-457 758h230l227 -385v385h194z" />
    <glyph glyph-name="X" unicode="X" horiz-adv-x="732" 
d="M367 239l-156 -226h-210l254 387l-254 371h232l134 -202l132 202h232l-254 -371l254 -387h-210z" />
    <glyph glyph-name="Y" unicode="Y" horiz-adv-x="732" 
d="M267 277l-238 494h222l113 -294l121 294h223l-247 -493v-265h-194v264z" />
    <glyph glyph-name="Z" unicode="Z" horiz-adv-x="511" 
d="M16 13v127l251 450h-251v181h479v-157l-232 -421h232v-180h-479z" />
    <glyph glyph-name="bracketleft" unicode="[" horiz-adv-x="1330" 
d="M1097 262v239l-148 -239h148zM482 13l-258 426v-426h-185v758h191l263 -435v435h185v-603l363 603h253v-758h-197v105h-235l-61 -105h-319z" />
    <glyph glyph-name="backslash" unicode="\" horiz-adv-x="1047" 
d="M221 183h60q86 0 137 61t51 148t-51 148t-137 61h-60v-418zM616 200q-22 -40 -54 -76q-101 -111 -278 -111h-256v758h256q177 0 278 -111q32 -37 54 -77v188h407v-166h-213v-123h213v-165h-213v-138h213v-166h-407v187z" />
    <glyph glyph-name="bracketright" unicode="]" horiz-adv-x="1161" 
d="M934 262v239l-148 -239h148zM221 415h76q44 0 70 26t26 67q0 40 -26 66q-26 27 -70 27h-76v-186zM502 134l385 637h245v-758h-198v105h-235l-61 -105h-267l-150 232v-232h-185v758h266q118 0 197 -70q80 -70 80 -177q0 -123 -52 -183q-51 -60 -112 -74z" />
    <glyph glyph-name="asciicircum" unicode="^" horiz-adv-x="847" 
d="M628 375v194l-129 -194h129zM218 284l333 487h270v-758h-193v227h-219l-42 -59h88v-168h-429v758h192v-487z" />
    <glyph glyph-name="underscore" unicode="_" horiz-adv-x="1069" 
d="M716 13v758h320v-170h-127v-588h-193zM677 771v-758h-196l-258 426v-426h-185v758h191l263 -435v265h-127v170h312z" />
    <glyph glyph-name="grave" unicode="`" 
d="M-42 747h-2v-99l1 -98l138 -1v-535l211 -1v536h133v-535l273 -1l2 4l3 6q3 5 6 9q3 5 6 11l6 9l15 25v0l11 18l2 4q2 2 3 4t4 7t6 9l6 10v0l4 7q3 5 11 18q8 14 13 21q1 3 3 7q3 4 5 6q1 3 3 6t3 4l4 8q2 2 4 6q3 5 6 9q2 5 5 9q3 5 4 8q2 2 4 5q2 4 4 7q1 3 4 8q4 5 6 9
q3 5 5 9q3 4 4 6q1 1 3 4q3 4 4 8q2 3 5 8q4 6 7 10q2 5 5 9q3 5 4 7l3 4v0l1 3q1 0 12 19t15 24q1 3 4 7q3 5 5 9l6 10v0l5 7q1 3 5 10t9 14l8 14v0l6 9q2 3 4 7q3 5 5 9q3 3 6 8t5 9l4 8q3 4 4 6q2 2 3 5q2 3 4 5q4 7 13 22q9 16 10 17t10 16q9 16 15 25q2 3 4 7q3 5 5 8
t5 9l8 12q3 6 6 11q4 6 5 8l3 6q3 4 5 7q2 4 5 9q4 5 6 9t5 9t5 8q19 30 23 38q5 8 5 9v1l-1 1q-1 0 -39 1h-167q-38 -1 -39 -1q-2 0 -4 -3q-3 -3 -11 -18q-15 -24 -21 -34t-13 -22q-5 -7 -9 -14t-6 -10l-4 -6q-2 -4 -4 -6l-5 -10l-10 -15q-5 -9 -9 -16t-7 -11q-2 -3 -7 -12
q-6 -10 -15 -23l-4 -8q-3 -4 -4 -6q-4 -7 -10 -17l-9 -15l-6 -9q-4 -7 -8 -13q-8 -14 -15 -25q-7 -12 -16 -27q-8 -13 -14 -23l-18 -30q-4 -6 -9 -14q-5 -9 -9 -14l-7 -13v207l-1 206l-1 1h-109q-108 1 -237 1h-239q-108 -1 -109 -1v0z" />
    <glyph glyph-name="a" unicode="a" horiz-adv-x="751" 
d="M721 771v-758h-198v105h-234l-62 -105h-230l458 758h266zM523 262v239l-147 -239h147z" />
    <glyph glyph-name="b" unicode="b" horiz-adv-x="592" 
d="M302 771q81 0 138 -39q57 -38 80 -100q14 -38 14 -73q0 -24 -7 -48q-15 -59 -67 -91q62 -43 86 -111q13 -39 13 -78q0 -30 -7 -59q-18 -69 -76 -114q-57 -44 -146 -45h-290v758h262zM239 182h57q38 0 58 22q21 22 21 53q-1 30 -21 51q-22 23 -58 23h-57v-149zM287 477
q32 0 50 19q17 19 17 45q0 27 -18 46t-49 19h-48v-129h48z" />
    <glyph glyph-name="c" unicode="c" horiz-adv-x="581" 
d="M550 571q-54 32 -113 32q-86 0 -146 -60q-61 -60 -61 -145t61 -145q60 -60 146 -60q64 0 113 34v-199q-54 -15 -116 -15q-166 0 -283 113q-118 113 -118 273t118 273q117 113 283 113q62 0 116 -16v-198z" />
    <glyph glyph-name="d" unicode="d" horiz-adv-x="690" 
d="M30 13v758h256q177 0 278 -112q101 -111 101 -267q0 -157 -101 -268t-278 -111h-256zM223 183h60q86 0 137 61t51 148t-51 148t-137 61h-60v-418z" />
    <glyph glyph-name="e" unicode="e" horiz-adv-x="468" 
d="M33 771h406v-166h-213v-123h213v-165h-213v-138h213v-166h-406v758z" />
    <glyph glyph-name="f" unicode="f" horiz-adv-x="497" 
d="M34 771h434v-167h-241v-166h241v-159h-240v-266h-194v758z" />
    <glyph glyph-name="g" unicode="g" horiz-adv-x="857" 
d="M831 446q0 -207 -117 -320q-118 -113 -285 -113q-166 0 -284 113q-117 113 -117 273t117 273q118 113 284 113q177 0 298 -137l-92 -153q-95 108 -203 108q-86 0 -146 -60q-61 -60 -61 -145t61 -145q60 -60 146 -60q85 0 146 60q16 16 28 34h-191v159h416z" />
    <glyph glyph-name="h" unicode="h" horiz-adv-x="655" 
d="M428 13v293h-197v-293h-193v758h193v-275h197v275h194v-758h-194z" />
    <glyph glyph-name="i" unicode="i" horiz-adv-x="264" 
d="M38 13v758h193v-758h-193z" />
    <glyph glyph-name="j" unicode="j" horiz-adv-x="587" 
d="M363 771v-60v0l-1 -204v-264l-2 -7q-5 -19 -16 -28q-11 -10 -29 -13h-6q-4 -1 -6 -1h-4v0l-2 -1q-1 0 -1 -17v-76q1 -39 1 -66v-29h2v0h14q39 1 74 10q35 10 65 28q41 25 71 64q30 40 43 86l2 6v0l1 5q1 2 3 11q2 10 3 18q2 17 2 51q1 34 1 234v200v0l-1 53q0 1 -34 1
h-146q-34 0 -34 -1v0z" />
    <glyph glyph-name="k" unicode="k" horiz-adv-x="685" 
d="M434 13l-209 327v-327h-193v758h193v-341l216 341h203l-251 -378l267 -380h-226z" />
    <glyph glyph-name="l" unicode="l" horiz-adv-x="476" 
d="M522 2l-16 28q-17 29 -36 63q-20 35 -36 64l-16 28h-228v588h-197v-771h529z" />
    <glyph glyph-name="m" unicode="m" horiz-adv-x="1077" 
d="M629 13h-194v385l-227 -385h-231l458 758h194v-390l228 390h194v-758h-194v385z" />
    <glyph glyph-name="n" unicode="n" horiz-adv-x="718" 
d="M484 13l-258 426v-426h-185v758h191l263 -435v435h185v-758h-196z" />
    <glyph glyph-name="o" unicode="o" horiz-adv-x="844" 
d="M815 392q0 -163 -115 -278q-115 -116 -278 -116t-278 116q-115 115 -115 278q0 162 115 278q115 115 278 115t278 -115q115 -116 115 -278zM422 591q-83 0 -141 -58q-59 -58 -59 -141q0 -82 59 -141q58 -59 141 -59t141 59q59 59 59 141q0 83 -59 141q-58 58 -141 58v0z
" />
    <glyph glyph-name="p" unicode="p" horiz-adv-x="602" 
d="M217 264v-251h-185v758h279q108 0 184 -72q76 -71 76 -178q0 -118 -76 -188q-76 -69 -184 -69h-94zM296 420q38 0 64 26q26 27 26 63q0 38 -26 65t-64 27h-79v-181h79z" />
    <glyph glyph-name="q" unicode="q" horiz-adv-x="844" 
d="M251 288q12 -19 30 -37q58 -59 141 -59q13 0 25 1q-110 95 -190 95h-6zM615 49q-86 -51 -193 -51q-163 0 -278 116q-115 115 -115 278q0 162 115 278q115 115 278 115t278 -115q115 -116 115 -278q0 -125 -69 -223q29 -15 45 -15h24v-153h-48q-72 0 -152 48v0zM595 292
q27 44 27 100q0 83 -59 141q-58 58 -141 58t-141 -58q-39 -39 -53 -89q27 6 50 6q147 0 308 -148q4 -6 9 -10v0z" />
    <glyph glyph-name="r" unicode="r" horiz-adv-x="614" 
d="M0 -192v1022h264l70 1q71 2 154.5 -30t150.5 -115q68 -83 61 -254q-2 -55 -17 -100t-39.5 -80.5t-55.5 -62.5q-32 -27 -66 -47q-2 -2 32 -53q34 -52 75.5 -114t76.5 -113l34 -51l-315 1l-161 249v-253h-264zM322 342q57 0 100.5 35t43.5 93q0 57 -41 98t-98 41h-40.5
h-29.5v-266l31.5 -0.5t33.5 -0.5v0z" />
    <glyph glyph-name="s" unicode="s" horiz-adv-x="587" 
d="M358 549v2q0 72 -71 72q-64 0 -64 -57q0 -50 112 -94q111 -43 166 -102q55 -58 55 -135v-4q-2 -104 -78 -169q-72 -64 -178 -64q-113 0 -186 64q-79 67 -79 177v25h186q0 -102 77 -102q70 0 70 70q0 32 -29 53q-33 23 -120 59q-80 31 -109 57q-71 61 -71 161
q0 102 76 164q70 59 177 59q235 0 247 -236h-181z" />
    <glyph glyph-name="t" unicode="t" horiz-adv-x="511" 
d="M353 590v-577h-193v577h-150v181h492v-181h-149z" />
    <glyph glyph-name="u" unicode="u" horiz-adv-x="637" 
d="M417 771h193v-467q0 -120 -85 -206q-85 -85 -206 -85q-120 0 -205 85q-85 86 -85 206v467h193v-481q0 -40 29 -68q29 -29 68 -29q40 0 69 29q29 28 29 68v481z" />
    <glyph glyph-name="v" unicode="v" horiz-adv-x="751" 
d="M521 771h231l-458 -758h-266v758h197v-489z" />
    <glyph glyph-name="w" unicode="w" horiz-adv-x="1077" 
d="M447 771h194v-385l227 385h231l-458 -758h-194v389l-228 -389h-193v758h193v-385z" />
    <glyph glyph-name="x" unicode="x" horiz-adv-x="732" 
d="M367 239l-156 -226h-210l254 387l-254 371h232l134 -202l132 202h232l-254 -371l254 -387h-210z" />
    <glyph glyph-name="y" unicode="y" horiz-adv-x="732" 
d="M267 277l-238 494h222l113 -294l121 294h223l-247 -493v-265h-194v264z" />
    <glyph glyph-name="z" unicode="z" horiz-adv-x="511" 
d="M16 13v127l251 450h-251v181h479v-157l-232 -421h232v-180h-479z" />
    <glyph glyph-name="braceleft" unicode="{" horiz-adv-x="1028" 
d="M797 262v239l-148 -239h148zM167 13v577h-150v181h492v-181h-149v-438l378 619h256v-758h-197v105h-235l-61 -105h-334z" />
    <glyph glyph-name="bar" unicode="|" horiz-adv-x="862" 
d="M35 13v758h246l150 -457h2l152 457h244v-758h-193v423l-139 -423h-128l-140 423v-423h-194z" />
    <glyph glyph-name="braceright" unicode="}" horiz-adv-x="1087" 
d="M849 262v239l-148 -239h148zM434 179l357 592h256v-758h-198v105h-235l-61 -105h-520v758h406v-166h-213v-123h213v-165h-213v-138h208z" />
    <glyph glyph-name="asciitilde" unicode="~" 
d="M301 15v772h-324v-166h127v-606h197zM333 787v-772h201v108h239l62 -108h235l-73 121q-73 120 -160 265q-88 145 -160 265l-73 121h-271zM534 269v244l23 -39q24 -38 52 -83q28 -46 52 -84l23 -38h-150z" />
    <glyph glyph-name="exclamdown" unicode="&#xa1;" 
d="M452 830q-50 -6 -100 -22q-51 -17 -92 -41q-12 -7 -27 -17q-16 -10 -19 -12q0 -1 -2 -2t-3 -3q-14 -8 -41 -33t-43 -44q-47 -55 -77 -119t-42 -133q-3 -23 -4 -41q-2 -18 -2 -43t1 -43q2 -18 5 -41q12 -69 42 -133t77 -119q16 -19 43 -44t41 -33q1 -2 3 -3t2 -2l18 -12
q16 -10 28 -17q42 -24 92 -40q51 -17 102 -23q20 -2 65 -2q46 1 64 3q64 10 120 33q57 23 106 58q45 32 81 72q37 40 64 85q27 46 44 98q18 51 24 105q2 20 2 65q-1 46 -3 64q-10 64 -33 120q-23 57 -58 106q-31 44 -71 81q-39 36 -84 63q-46 27 -96 44q-51 18 -104 24
q-21 3 -62 3t-61 -2v0zM640 576q64 -2 117 -6q54 -4 67 -7q5 -1 12 -3q7 -3 12 -6q10 -4 20 -11q10 -8 12 -11q0 -1 1 -3q2 -3 4 -5q5 -8 7 -16t3 -32q3 -37 4 -79t1 -85t-1 -83q-2 -41 -5 -75q-1 -15 -3 -24q-3 -9 -10 -17q-8 -11 -23 -20q-16 -9 -32 -13q-13 -4 -63 -7
q-50 -4 -116 -6q-19 -1 -56 -1q-38 -1 -79 -1t-79 1q-37 0 -56 1q-67 2 -116 5q-50 4 -63 8q-21 5 -37 17q-17 12 -24 26q-4 8 -5 18l-4 44q-1 21 -2 58v154q1 37 2 58q1 16 2 30q2 15 2 18q3 16 13 28q11 13 29 22q6 3 13 6q8 3 13 4q13 3 66 7q54 4 112 6q18 0 55 1h153
q37 0 54 -1v0zM404 567q-78 -3 -133 -6q-55 -4 -56 -6q0 -1 -2 -1q-2 -1 -4 -1q-6 0 -20 -7q-15 -8 -22 -15q-13 -12 -16 -22q-4 -11 -6 -41q-2 -39 -3 -81t-1 -83q0 -42 2 -80q1 -38 3 -69q2 -14 5 -23q4 -9 12 -17q6 -6 14 -12q9 -6 12 -6h2q1 -1 1 -2t12 -4q12 -4 17 -4
h5q3 -1 4 -2q2 -1 31 -3q30 -2 82 -4q17 -1 66 -1q48 -1 103 -1t103 1q49 0 66 1q52 2 81 4q30 2 32 3q1 1 3 1q3 1 6 1q14 0 34 10q20 11 29 24q8 9 10 17t4 31q2 31 3 74q2 44 2 79q0 51 -3 109q-3 59 -5 70q-2 8 -7 15q-5 8 -13 15t-22 14q-14 8 -20 8h-4q-2 1 -2 2
q-1 2 -35 4q-34 3 -94 6q-11 0 -51 1h-86q-46 1 -87 1h-52z" />
    <glyph glyph-name="cent" unicode="&#xa2;" 
d="M464 830q-6 0 -16 -1q-10 -2 -20 -3q-56 -10 -108 -31q-53 -21 -99 -53t-85 -74t-68 -92q-27 -47 -44 -101q-18 -55 -23 -109q-1 -16 -1 -46t1 -46q6 -61 26 -120q20 -58 52 -109q33 -51 78 -94q44 -43 99 -75q47 -27 101 -44q55 -18 109 -23q16 -1 46 -1t46 1
q43 4 86 16q42 11 81 29q40 18 76 43q37 25 69 56q10 10 24 26q15 16 15 17l-5 -5v0l-14 -13q-29 -29 -63 -50q-34 -22 -72 -36t-78 -20q-41 -6 -84 -4q-31 1 -63 8t-60 17l-14 6v0l-9 3q-5 2 -22 11q-18 10 -27 16q-26 16 -53 40q-28 24 -45 47q-10 11 -20 27
q-11 16 -19 30q-9 17 -19 41q-10 25 -8 26q0 1 55 16t132 35l186 51l324 116l86 49l-1 7q-2 15 -11 46t-18 53q-17 43 -43 83t-58 74q-33 35 -71 63q-39 29 -81 49t-87 32q-45 13 -89 17q-15 1 -47 1q-33 0 -47 -2v0zM762 296l-153 -56l-179 -48q-74 -20 -127 -34
q-53 -15 -54 -15q-2 -1 -2 -3q1 -2 4 -11q18 -51 49 -93q31 -43 72 -75t91 -53t105 -28q18 -2 50 -2q33 1 51 4q51 7 94 25q43 19 83 49q10 7 28 25q19 18 28 29q21 25 37 53t26 58q3 10 4 15t1 14v12q-1 4 -3 7q-2 4 -31 56q-30 53 -34 59q-7 11 -15 27l-9 17q0 1 6 4
q6 4 14 8q9 5 14 8l5 3q-1 0 -46 -16q-46 -16 -109 -39v0z" />
    <glyph glyph-name="sterling" unicode="&#xa3;" 
d="M597 721q-3 -6 -10 -17q-7 -12 -9 -15q-1 -1 -3 -5q-3 -4 -6 -9q-2 -4 -5 -8t-3 -5q-1 -2 -6 -10t-11 -17q-6 -10 -11 -18t-7 -10q-1 -2 -6 -10t-10 -17l-10 -16l-8 -12l-6 -9l-8 -14q-5 -7 -8 -13q-4 -6 -6 -8q-1 -2 -7 -13q-7 -11 -16 -24q-8 -14 -17 -29
q-10 -15 -15 -22q-4 -8 -13 -22q-10 -15 -18 -28l-16 -26q-8 -14 -12 -19q-3 -6 -9 -16q-7 -10 -13 -19q-21 -34 -34 -56q-14 -22 -18 -27q-2 -4 -12 -20q-10 -17 -23 -37q-12 -19 -27 -43q-15 -25 -24 -39q-8 -14 -19 -31t-17 -28l-16 -24v-12h710v200h-346l5 8l4 6
q3 4 4 7q2 2 5 7l6 10v0l5 9q6 10 4 6t1 2q4 7 2 2l3 6q2 2 3 4q2 3 3 5t3 5q3 4 5 7q1 3 4 8q4 5 6 9q3 3 9 14l14 22q42 68 57 91q15 24 16 27q1 1 3 5q3 4 5 8q3 3 5 7q3 4 3 5q1 2 6 10t11 17q6 10 14 23q9 13 14 22q12 20 27 44q16 24 22 35q3 4 5 8q3 4 4 6q1 1 5 8
q5 8 11 17l10 17v0l6 9q1 2 3 5q2 4 5 8l4 8q3 4 4 6q8 11 13 19q5 9 5 10h-246z" />
    <glyph glyph-name="currency" unicode="&#xa4;" 
d="M452 830q-50 -6 -100 -22q-51 -17 -92 -41q-12 -7 -27 -17q-16 -10 -19 -12q0 -1 -2 -2t-3 -3q-14 -8 -41 -33t-43 -44q-47 -55 -77 -119t-42 -133q-3 -23 -4 -41q-2 -18 -2 -43t1 -43q2 -18 5 -41q12 -69 42 -133t77 -119q16 -19 43 -44t41 -33q1 -2 3 -3t2 -2l18 -12
q16 -10 28 -17q42 -24 92 -40q51 -17 102 -23q20 -2 65 -2q46 1 64 3q64 10 120 33q57 23 106 58q45 32 81 72q37 40 64 85q27 46 44 98q18 51 24 105q2 20 2 65q-1 46 -3 64q-10 64 -33 120q-23 57 -58 106q-31 44 -71 81q-39 36 -84 63q-46 27 -96 44q-51 18 -104 24
q-21 3 -62 3t-61 -2v0zM631 614q16 0 37 -1t34 -2q14 -1 27 -1q14 -1 19 -1h8q5 -1 6 -2q1 0 7 -1q7 -1 15 -2q19 -1 31 -4t23 -8q17 -8 29 -21t17 -27q4 -9 7 -45t5 -94q2 -35 2 -106q-1 -72 -3 -101q-3 -37 -5 -61q-2 -25 -3 -32q-5 -19 -22 -36t-41 -24q-9 -3 -24 -5
q-16 -3 -43 -4q-10 -1 -18 -2t-9 -1q-1 -1 -10 -1q-10 -1 -22 -1q-12 -1 -30 -1q-18 -1 -32 -2q-16 0 -50 -1h-148q-35 1 -50 1q-14 1 -32 1q-18 1 -30 2h-21q-10 1 -11 2q-1 0 -9 1t-18 2q-27 1 -42 3q-16 3 -25 6q-23 7 -40 23q-17 17 -21 36q-2 6 -4 30t-4 62
q-2 29 -2 103q-1 74 0 108q3 58 6 94t6 44q5 15 16 27q12 12 29 20q11 5 23 8t31 4q8 1 14 2q7 1 8 1q1 1 5 1q4 1 9 1h18l28 2t33 2t31 1q17 1 51 1q34 1 72 1t72 -1q34 0 50 -1v0zM401 605h-17l-28 -2q-48 -2 -87 -5t-49 -6q-7 -2 -16 -5q-10 -4 -10 -5q-1 0 -2 -1
q-2 -2 -4 -3q-13 -6 -24 -20q-11 -15 -13 -29q-1 -6 -3 -36q-3 -31 -5 -64q-1 -32 -1 -108q0 -77 1 -110q2 -34 4 -63t4 -36q3 -15 15 -29q13 -15 30 -24q16 -8 29 -10q14 -2 62 -6q52 -3 110 -5q57 -2 115 -2t115 2q58 2 110 5q48 4 61 6q14 2 30 10q15 8 27 20t17 26
q3 7 5 36q3 29 4 69q2 40 3 84q0 44 -1 82q-2 67 -5 109q-3 43 -6 53q-7 17 -24 32t-39 21q-11 3 -41 5q-31 3 -95 7q-9 1 -50 1q-40 1 -86 1h-136z" />
    <glyph glyph-name="yen" unicode="&#xa5;" 
d="M2 778v-31q-1 -31 -1 -83v-272l1 -383l189 -1v254l63 1q54 1 74 3q21 2 48 11q29 9 55 25q26 17 49 40q36 35 53 79q17 45 17 102q0 33 -5 59q-6 27 -19 52q-26 55 -76 92q-51 37 -114 49q-13 3 -37 3q-24 1 -139 1h-127v0l-31 -1v0zM301 598q20 -7 35 -24q16 -17 21 -37
q3 -10 3 -24t-3 -23q-7 -24 -25 -41q-19 -17 -43 -23q-6 -1 -18 -1q-12 -1 -36 -1h-44v180l50 -1q37 0 44 -1q8 -1 16 -4v0zM529 396q-48 -78 -90 -148l-73 -122v0l-51 -84q-18 -30 -18 -31q-1 -2 16 -2q18 -1 101 0h117l31 52l30 53l237 1v-107l203 1v767l-1 4l-271 -1z
M829 264h-73l-72 1l38 62q16 26 31 51q16 25 21 33q6 9 16 25t18 30l21 34v-236z" />
    <glyph glyph-name="brokenbar" unicode="&#xa6;" 
d="M190 426v345h188v-345h-188zM190 -90v344h188v-344h-188z" />
    <glyph glyph-name="section" unicode="&#xa7;" horiz-adv-x="686" 
d="M557 103q52 -72 52 -144q0 -104 -78 -166q-71 -58 -178 -58q-48 0 -97 15q-176 51 -189 227h167q14 -87 116 -87q35 0 62 15q30 19 30 51q0 40 -90 82l-175 81q-68 32 -99 70q-37 44 -37 115q0 93 97 164q-32 50 -32 114q0 97 76 154q68 49 169 49q100 0 169 -55
q74 -60 78 -156h-167q-17 59 -89 59t-72 -54q0 -34 61 -60l186 -84q128 -59 128 -170q0 -81 -88 -162v0zM425 304l-189 85q-40 -20 -40 -57q0 -39 54 -64l207 -95q38 24 38 63q0 37 -70 68v0z" />
    <glyph glyph-name="dieresis" unicode="&#xa8;" 
d="M322 662v155h162v-155h-162zM83 662v155h163v-155h-163z" />
    <glyph glyph-name="copyright" unicode="&#xa9;" horiz-adv-x="819" 
d="M687 114q-115 -116 -276 -116q-162 0 -278 116q-115 116 -115 278q0 164 116 278q115 115 279 115q161 0 275 -117q114 -116 114 -276q0 -162 -115 -278zM629 613q-89 93 -217 93q-130 0 -219 -92q-90 -92 -90 -222q0 -129 90 -222t218 -93q129 0 218 93q88 93 88 222
t-88 221zM613 350q-7 -85 -61 -134q-54 -50 -140 -50q-100 0 -158 66q-57 62 -57 163q0 98 59 163q60 65 159 65q74 0 131 -44q58 -46 63 -120h-107q-20 70 -86 70q-56 0 -84 -41q-26 -37 -26 -94q0 -58 26 -92q28 -41 84 -41q71 0 89 89h108z" />
    <glyph glyph-name="ordfeminine" unicode="&#xaa;" horiz-adv-x="413" 
d="M258 482v29h-2q-19 -39 -75 -39q-63 0 -104 47q-39 45 -39 109q0 66 39 111q41 46 106 46q53 0 74 -40h1v30h101v-293h-101zM242 671q-17 18 -43 18t-43 -18q-17 -17 -17 -43q0 -25 18 -43q16 -17 42 -17t43 17q17 18 17 43q0 27 -17 43v0z" />
    <glyph glyph-name="guillemotleft" unicode="&#xab;" horiz-adv-x="432" 
d="M252 248v117l132 133v-143l-52 -46l52 -48v-143zM48 248v117l132 133v-143l-52 -46l52 -48v-143z" />
    <glyph glyph-name="logicalnot" unicode="&#xac;" horiz-adv-x="614" 
d="M407 123v182h-373v163h536v-345h-163z" />
    <glyph glyph-name="uni00AD" unicode="&#xad;" horiz-adv-x="288" 
d="M0 225v167h288v-167h-288z" />
    <glyph glyph-name="registered" unicode="&#xae;" horiz-adv-x="819" 
d="M687 114q-115 -116 -276 -116q-162 0 -278 116q-115 116 -115 278t116 278q116 115 279 115q160 0 275 -117q114 -116 114 -276q0 -162 -115 -278zM629 613q-89 93 -217 93q-130 0 -219 -92q-90 -92 -90 -222q0 -129 90 -222t218 -93q129 0 218 93q88 93 88 222t-88 221z
M486 178q-2 3 -14 104q-8 64 -78 64h-43v-168h-108v436h184q67 0 110 -28q50 -32 50 -95q0 -74 -71 -105q54 -23 62 -92q13 -113 14 -116h-106zM410 539h-59v-123h57q70 0 70 67q0 56 -68 56z" />
    <glyph glyph-name="macron" unicode="&#xaf;" 
d="M100 676v129h368v-129h-368z" />
    <glyph glyph-name="degree" unicode="&#xb0;" horiz-adv-x="410" 
d="M309 492q-43 -43 -104 -43q-62 0 -104 43q-43 42 -43 103q0 62 43 105q42 42 104 42q61 0 104 -42q42 -43 42 -105q0 -61 -42 -103v0zM248 639q-19 19 -43 19q-25 0 -42 -19q-19 -19 -19 -44q0 -24 18 -43t43 -19q24 0 43 19q17 19 17 43q0 25 -17 44z" />
    <glyph glyph-name="plusminus" unicode="&#xb1;" horiz-adv-x="614" 
d="M389 279v-133h-164v133h-176v164h176v139h164v-139h176v-164h-176zM49 -71v164h516v-164h-516z" />
    <glyph glyph-name="uni00B2" unicode="&#xb2;" horiz-adv-x="417" 
d="M36 445v99q141 90 180 146q25 34 25 67q0 42 -36 42q-46 0 -48 -69h-126q2 68 29 108q51 71 154 71q66 0 114 -33q55 -38 55 -101q0 -68 -61 -137q-35 -38 -94 -82v-3h157v-108h-349z" />
    <glyph glyph-name="uni00B3" unicode="&#xb3;" horiz-adv-x="417" 
d="M328 473q-55 -37 -123 -37q-108 0 -154 63q-23 33 -28 86h132q10 -39 51 -39q49 0 49 44q0 40 -69 40l-38 -1v92h19q67 0 67 43q0 34 -32 34q-35 0 -37 -36h-129q1 71 51 111q47 36 119 36q60 0 105 -32q50 -36 50 -94q0 -63 -58 -94q85 -27 85 -109q0 -65 -60 -107v0z
" />
    <glyph glyph-name="acute" unicode="&#xb4;" 
d="M203 642l-48 100l245 132l55 -121z" />
    <glyph glyph-name="mu" unicode="&#xb5;" horiz-adv-x="649" 
d="M433 13v70h-3q-26 -80 -104 -80q-71 0 -101 55h-2v-240h-170v763h170v-280q0 -148 101 -148t101 148v280h170v-568h-162z" />
    <glyph glyph-name="paragraph" unicode="&#xb6;" horiz-adv-x="718" 
d="M571 650v-743h-131v743h-99v-743h-131v469q-96 0 -155 47q-62 52 -62 147q0 201 260 201h369v-121h-51z" />
    <glyph glyph-name="periodcentered" unicode="&#xb7;" horiz-adv-x="322" 
d="M73 185v174h177v-174h-177z" />
    <glyph glyph-name="cedilla" unicode="&#xb8;" 
d="M364 -209q-32 -29 -81 -29q-99 0 -112 96h78q10 -28 34 -28q36 0 36 38q0 35 -34 35q-16 0 -28 -15l-67 36l43 89h85l-29 -54q11 3 21 3q39 0 64 -28q23 -26 23 -66q0 -48 -33 -77v0z" />
    <glyph glyph-name="uni00B9" unicode="&#xb9;" horiz-adv-x="296" 
d="M100 445v346h-80v109h206v-455h-126z" />
    <glyph glyph-name="ordmasculine" unicode="&#xba;" horiz-adv-x="394" 
d="M310 516q-46 -44 -113 -44q-68 0 -113 44q-46 45 -46 112q0 68 46 113q45 44 113 44q67 0 113 -44q45 -45 45 -113q0 -67 -45 -112zM238 670q-17 19 -41 19q-25 0 -41 -19q-17 -17 -17 -42q0 -24 17 -42q16 -18 41 -18q24 0 41 18q16 18 16 42q0 25 -16 42v0z" />
    <glyph glyph-name="guillemotright" unicode="&#xbb;" horiz-adv-x="432" 
d="M252 118v144l53 46l-53 48v142l132 -134v-116zM48 118v144l52 46l-52 48v142l132 -134v-116z" />
    <glyph glyph-name="onequarter" unicode="&#xbc;" horiz-adv-x="851" 
d="M293 13h-139l317 758h140zM100 316v346h-80v109h206v-455h-126zM769 92v-79h-126v79h-214v88l219 287h121v-279h53v-96h-53zM645 312h-2l-84 -124h86v124z" />
    <glyph glyph-name="onehalf" unicode="&#xbd;" horiz-adv-x="888" 
d="M100 316v346h-80v109h206v-455h-126zM288 13h-140l318 758h140zM489 13v99q142 90 181 146q24 34 24 67q0 42 -36 42q-46 0 -48 -70h-126q2 69 30 109q50 71 154 71q65 0 113 -33q56 -38 56 -101q0 -68 -62 -137q-35 -39 -93 -83v-2h157v-108h-350z" />
    <glyph glyph-name="threequarters" unicode="&#xbe;" horiz-adv-x="971" 
d="M328 344q-55 -37 -123 -37q-108 0 -154 63q-23 33 -28 86h132q10 -39 51 -39q49 0 49 44q0 40 -69 40l-38 -1v92h19q67 0 67 43q0 34 -32 34q-35 0 -37 -36h-129q1 71 51 111q47 36 119 36q60 0 105 -32q50 -36 50 -94q0 -63 -58 -94q85 -27 85 -109q0 -65 -60 -107z
M418 13h-139l317 758h140zM889 92v-79h-126v79h-214v88l219 287h121v-279h53v-96h-53zM765 312h-2l-84 -124h86v124z" />
    <glyph glyph-name="questiondown" unicode="&#xbf;" horiz-adv-x="606" 
d="M237 407v174h178v-174h-178zM477 -122q-76 -70 -190 -70q-155 0 -220 123q-25 46 -25 94q0 92 94 181q96 92 101 133h178q-1 -75 -89 -162q-87 -87 -87 -130q0 -64 58 -64q42 0 58 31q12 20 13 67h187q1 -6 1 -18q0 -113 -79 -185z" />
    <glyph glyph-name="Agrave" unicode="&#xc0;" horiz-adv-x="776" 
d="M-4 865l272 2l31 -64l-272 -2zM296 771l459 -758h-231l-62 105h-235v-105h-196v758h265zM375 262l-148 239v-239h148z" />
    <glyph glyph-name="Aacute" unicode="&#xc1;" horiz-adv-x="776" 
d="M61 865l273 2l-35 -64l-272 -2zM296 771l459 -758h-231l-62 105h-235v-105h-196v758h265zM375 262l-148 239v-239h148z" />
    <glyph glyph-name="Acircumflex" unicode="&#xc2;" horiz-adv-x="776" 
d="M66 865l190 2l41 -64l-272 -2zM296 771l459 -758h-231l-62 105h-235v-105h-196v758h265zM375 262l-148 239v-239h148z" />
    <glyph glyph-name="Atilde" unicode="&#xc3;" horiz-adv-x="776" 
d="M27 865l272 2v-64l-272 -2v64zM296 771l459 -758h-231l-62 105h-235v-105h-196v758h265zM375 262l-148 239v-239h148z" />
    <glyph glyph-name="Adieresis" unicode="&#xc4;" horiz-adv-x="776" 
d="M296 771l459 -758h-231l-62 105h-235v-105h-196v758h265zM375 262l-148 239v-239h148zM139 866v-64l-112 -1v64zM184 866l115 1v-64l-115 -1v64z" />
    <glyph glyph-name="Aring" unicode="&#xc5;" horiz-adv-x="776" 
d="M27 865l272 2v-64l-272 -2v64zM296 771l459 -758h-231l-62 105h-235v-105h-196v758h265zM375 262l-148 239v-239h148z" />
    <glyph glyph-name="AE" unicode="&#xc6;" horiz-adv-x="947" 
d="M523 118h-234l-62 -105h-230l458 758h475v-166h-213v-123h213v-165h-213v-138h213v-166h-407v105zM523 501l-147 -239h147v239z" />
    <glyph glyph-name="Ccedilla" unicode="&#xc7;" horiz-adv-x="581" 
d="M297 -19h252v-63h-252v63zM550 571q-54 32 -113 32q-86 0 -146 -60q-61 -60 -61 -145t61 -145q60 -60 146 -60q64 0 113 34v-199q-54 -15 -116 -15q-166 0 -283 113q-118 113 -118 273t118 273q117 113 283 113q62 0 116 -16v-198z" />
    <glyph glyph-name="Egrave" unicode="&#xc8;" horiz-adv-x="541" 
d="M204 830v-49l119 -1h94q24 1 24 2q-1 1 -17 5q-17 4 -82 17q-7 1 -17 3q-10 3 -17 4q-7 2 -16 4t-15 3l-17 3v0l-25 5q-24 6 -27 6t-4 -2v0zM124 380v-376h403v166h-210v136h210v164h-210v120h210v165h-403v-375z" />
    <glyph glyph-name="Eacute" unicode="&#xc9;" horiz-adv-x="541" 
d="M428 830q-3 -1 -14 -3t-24 -5q-12 -2 -26 -5q-15 -3 -23 -5t-18 -4q-11 -3 -18 -4q-18 -3 -57 -11q-39 -9 -41 -10q-7 -2 15 -2q23 -1 102 -1l118 1v51h-3h-4q-4 -1 -7 -2v0zM123 380v-376h404v166h-211v136h211v164h-211v120h211v165h-404v-375z" />
    <glyph glyph-name="Ecircumflex" unicode="&#xca;" horiz-adv-x="541" 
d="M178 865l191 2l41 -64l-273 -2zM69 13v758h420v-170h-235v-118h228v-170h-228v-130h235v-170h-420z" />
    <glyph glyph-name="Edieresis" unicode="&#xcb;" horiz-adv-x="541" 
d="M250 866v-64l-113 -1v64zM295 866l115 1v-64l-115 -1v64zM69 13v758h420v-170h-235v-118h228v-170h-228v-130h235v-170h-420z" />
    <glyph glyph-name="Igrave" unicode="&#xcc;" horiz-adv-x="331" 
d="M115 814q4 -1 15 -3q11 -3 22 -5l48 -10q25 -6 48 -11l20 -4q11 -2 16 -3t8 -2q4 -1 4 -2h-29v0l-69 -1h-99v22q0 18 1 20q2 2 15 -1v0zM292 757q1 -1 1 -31v-725h-196v760h194z" />
    <glyph glyph-name="Iacute" unicode="&#xcd;" horiz-adv-x="331" 
d="M280 814q-4 -1 -15 -3q-11 -3 -22 -5l-48 -10q-25 -6 -48 -11l-20 -4q-11 -2 -16 -3t-8 -2q-4 -1 -4 -2h29v0l69 -1h99v22q0 18 -1 20q-2 2 -15 -1v0zM103 757q-1 -1 -1 -31v-725h196v760h-194z" />
    <glyph glyph-name="Icircumflex" unicode="&#xce;" horiz-adv-x="331" 
d="M66 865l190 2l41 -64l-272 -2zM69 13v758h193v-758h-193z" />
    <glyph glyph-name="Idieresis" unicode="&#xcf;" horiz-adv-x="331" 
d="M139 866v-64l-112 -1v64zM184 866l115 1v-64l-115 -1v64zM69 13v758h193v-758h-193z" />
    <glyph glyph-name="Eth" unicode="&#xd0;" horiz-adv-x="791" 
d="M657 118q-100 -105 -272 -105h-286v303h-68v170h68v285h255q228 0 331 -142q70 -96 70 -235q0 -173 -98 -276v0zM517 541q-47 60 -140 60h-84v-115h110v-170h-110v-133h83q185 0 185 208q0 95 -44 150v0z" />
    <glyph glyph-name="Ntilde" unicode="&#xd1;" horiz-adv-x="777" 
d="M237 865l272 2v-64l-272 -2v64zM540 13l-289 461l-2 -1l5 -460h-185v758h167l292 -477l2 2l-8 475h186v-758h-168z" />
    <glyph glyph-name="Ograve" unicode="&#xd2;" horiz-adv-x="871" 
d="M324 869q2 0 8 -1q6 -2 12 -3t13 -2q7 -2 11 -3q8 -2 13 -3t18 -3q3 -1 7 -2t7 -1q6 -2 11 -3q6 -1 21 -4q7 -2 15 -3l12 -3t9 -2t8 -1q3 -1 9 -2q6 -2 12 -3q5 -1 14 -3q10 -2 17 -3q11 -3 24 -5q13 -3 30 -7q3 0 5 -1q3 -1 3 -2q1 -1 -28 -1q-29 -1 -115 -1h-144v32v22
q1 9 2 9h2v0l4 -1v0zM489 769q71 -4 134 -33t115 -81q49 -49 77 -105q28 -57 37 -126q2 -16 2 -48q-1 -33 -3 -50q-9 -67 -37 -123t-76 -104q-42 -42 -90 -68q-48 -27 -103 -39q-36 -7 -80 -7q-44 -1 -79 5q-51 10 -98 33t-87 59q-51 45 -83 100q-32 56 -44 119q-4 22 -5 41
q-1 20 -1 47q1 47 10 85q10 38 29 77q15 30 32 54q18 24 45 50q18 19 31 29q13 11 33 24q42 28 88 43q47 15 101 18q19 2 25 2q6 -1 27 -2v0zM425 572q-31 -5 -58 -19q-27 -15 -50 -39q-26 -27 -39 -58q-14 -31 -16 -69q-1 -27 5 -55q7 -29 20 -51q15 -26 38 -48t48 -35
q39 -19 86 -19q47 -1 86 18q16 8 28 16q12 9 25 22q23 22 37 46q14 25 20 55q3 12 3 35q1 24 -1 39q-5 30 -18 57q-14 27 -37 49q-24 24 -50 38q-27 14 -59 19q-14 2 -33 2q-20 0 -35 -3v0z" />
    <glyph glyph-name="Oacute" unicode="&#xd3;" horiz-adv-x="871" 
d="M611 869q-2 0 -8 -1q-6 -2 -12 -3t-13 -2q-7 -2 -11 -3q-8 -2 -13 -3t-18 -3q-3 -1 -7 -2t-7 -1q-6 -2 -11 -3q-6 -1 -21 -4q-7 -2 -15 -3l-12 -3t-9 -2t-8 -1q-3 -1 -9 -2q-6 -2 -12 -3q-5 -1 -14 -3q-10 -2 -17 -3q-11 -3 -24 -5q-13 -3 -30 -7q-3 0 -5 -1q-3 -1 -3 -2
q-1 -1 28 -1q29 -1 115 -1h144v32v22q-1 9 -2 9h-2v0l-4 -1v0zM446 769q-71 -4 -134 -33t-115 -81q-49 -49 -77 -105q-28 -57 -37 -126q-2 -16 -2 -48q1 -33 3 -50q9 -67 37 -123t76 -104q42 -42 90 -68q48 -27 103 -39q36 -7 80 -7q44 -1 79 5q51 10 98 33t87 59
q51 45 83 100q32 56 44 119q4 22 5 41q1 20 1 47q-1 47 -10 85q-10 38 -29 77q-15 30 -32 54q-18 24 -45 50q-18 19 -31 29q-13 11 -33 24q-42 28 -88 43q-47 15 -101 18q-19 2 -25 2q-6 -1 -27 -2v0zM510 572q31 -5 58 -19q27 -15 50 -39q26 -27 39 -58q14 -31 16 -69
q1 -27 -5 -55q-7 -29 -20 -51q-15 -26 -38 -48t-48 -35q-39 -19 -86 -19q-47 -1 -86 18q-16 8 -28 16q-12 9 -25 22q-23 22 -37 46q-14 25 -20 55q-3 12 -3 35q-1 24 1 39q5 30 18 57q14 27 37 49q24 24 50 38q27 14 59 19q14 2 33 2q20 0 35 -3v0z" />
    <glyph glyph-name="Ocircumflex" unicode="&#xd4;" horiz-adv-x="871" 
d="M338 865l190 2l41 -64l-272 -2zM718 111q-116 -113 -284 -113q-163 0 -279 111q-119 112 -119 273q0 83 30 162q15 41 49 85q118 156 320 156q169 0 284 -113q117 -114 117 -280q0 -167 -118 -281zM586 547q-60 68 -150 68q-91 0 -149 -66q-58 -64 -58 -155
q0 -93 58 -158q59 -68 151 -68q89 0 148 68q56 65 56 155q0 91 -56 156z" />
    <glyph glyph-name="Otilde" unicode="&#xd5;" horiz-adv-x="871" 
d="M293 865l272 2v-64l-272 -2v64zM718 111q-116 -113 -284 -113q-163 0 -279 111q-119 112 -119 273q0 83 30 162q15 41 49 85q118 156 320 156q169 0 284 -113q117 -114 117 -280q0 -167 -118 -281zM586 547q-60 68 -150 68q-91 0 -149 -66q-58 -64 -58 -155
q0 -93 58 -158q59 -68 151 -68q89 0 148 68q56 65 56 155q0 91 -56 156z" />
    <glyph glyph-name="Odieresis" unicode="&#xd6;" horiz-adv-x="871" 
d="M410 866v-64l-113 -1v64zM455 866l114 1v-64l-114 -1v64zM718 111q-116 -113 -284 -113q-163 0 -279 111q-119 112 -119 273q0 83 30 162q15 41 49 85q118 156 320 156q169 0 284 -113q117 -114 117 -280q0 -167 -118 -281zM586 547q-60 68 -150 68q-91 0 -149 -66
q-58 -64 -58 -155q0 -93 58 -158q59 -68 151 -68q89 0 148 68q56 65 56 155q0 91 -56 156z" />
    <glyph glyph-name="multiply" unicode="&#xd7;" horiz-adv-x="614" 
d="M423 262l132 -133l-116 -116l-132 132l-134 -132l-116 116l133 133l-133 133l116 115l133 -133l134 134l117 -116z" />
    <glyph glyph-name="Oslash" unicode="&#xd8;" horiz-adv-x="871" 
d="M718 111q-117 -113 -284 -113q-89 0 -171 36l-64 -86l-121 89l63 85q-105 113 -105 270q0 168 117 281q114 112 283 112q93 0 171 -36l66 89l121 -88l-66 -88q108 -116 108 -270q0 -167 -118 -281v0zM612 507l-242 -327q30 -12 67 -12q89 0 149 68q56 65 56 155
q0 60 -30 116v0zM500 605q-30 10 -64 10q-90 0 -149 -66q-58 -63 -58 -154q0 -66 28 -117z" />
    <glyph glyph-name="Ugrave" unicode="&#xd9;" horiz-adv-x="715" 
d="M318 882q6 -1 14 -2l12 -3q5 -1 11 -2q6 -2 10 -2q8 -2 18 -4q11 -3 55 -12q38 -8 53 -11q16 -3 31 -7q6 -1 10 -2l5 -2q0 -1 -30 -1q-31 -1 -89 -1h-119v47v0l2 6q1 0 6 -1t11 -3zM708 526q0 -199 -1 -232q-1 -34 -6 -58q-16 -67 -65 -123q-50 -56 -116 -81
q-41 -15 -86 -17q-46 -2 -90 8q-38 10 -71 29q-33 20 -63 49q-28 29 -46 61q-19 32 -29 69q-6 26 -7 60t-1 236v246h194v-246q0 -202 1 -231t8 -44q6 -14 18 -26q13 -13 27 -20q18 -9 41 -9q23 -1 41 7q15 7 27 19q13 13 20 28q8 16 9 44t1 232v246h194v-247z" />
    <glyph glyph-name="Uacute" unicode="&#xda;" horiz-adv-x="715" 
d="M511 882q-6 -1 -14 -2l-12 -3q-5 -1 -11 -2q-6 -2 -9 -2q-8 -2 -19 -4q-11 -3 -55 -12q-38 -8 -53 -11t-31 -7q-6 -1 -10 -2l-5 -2q0 -1 30 -1q31 -1 89 -1h119v47v0l-2 6q-1 0 -6 -1t-11 -3zM121 526q0 -199 1 -232q1 -34 6 -58q16 -67 66 -123t116 -81q40 -15 86 -17
t89 8q38 10 71 29q33 20 63 49q28 29 46 61q19 32 29 69q6 26 7 60t1 236v246h-194v-246q0 -202 -1 -231t-8 -44q-6 -14 -18 -26q-13 -13 -27 -20q-18 -9 -40 -9q-23 -1 -42 7q-15 7 -27 19q-13 13 -20 28q-8 16 -9 44t-1 232v246h-194v-247z" />
    <glyph glyph-name="Ucircumflex" unicode="&#xdb;" horiz-adv-x="715" 
d="M215 865l272 2v-64l-272 -2v64zM648 313q0 -157 -76 -233q-80 -82 -212 -82q-141 0 -218 81q-75 80 -75 234v458h193v-458q0 -145 98 -145q61 0 82 46q15 29 15 99v458h193v-458z" />
    <glyph glyph-name="Udieresis" unicode="&#xdc;" horiz-adv-x="715" 
d="M328 866v-64l-113 -1v64zM373 866l114 1v-64l-114 -1v64zM648 313q0 -157 -76 -233q-80 -82 -212 -82q-141 0 -218 81q-75 80 -75 234v458h193v-458q0 -145 98 -145q61 0 82 46q15 29 15 99v458h193v-458z" />
    <glyph glyph-name="Yacute" unicode="&#xdd;" horiz-adv-x="663" 
d="M219 865l273 2l-35 -64l-273 -2zM429 288v-275h-193v275l-227 483h210l113 -305l113 305h208z" />
    <glyph glyph-name="Thorn" unicode="&#xde;" horiz-adv-x="651" 
d="M559 218q-76 -66 -221 -66h-84v-139h-185v758h185v-100l81 1q149 0 215 -55q89 -75 89 -201q0 -129 -80 -198zM326 502h-72v-180h79q121 0 121 91q0 89 -128 89v0z" />
    <glyph glyph-name="germandbls" unicode="&#xdf;" horiz-adv-x="711" 
d="M596 66q-77 -72 -184 -72q-102 0 -183 84v-65h-170v437q0 168 66 241q89 99 224 99q95 0 166 -58q75 -63 75 -156q0 -84 -73 -132q69 -18 114 -72q45 -56 45 -126q0 -106 -80 -180v0zM472 318q-31 22 -81 22h-92v128h35q37 0 60 21q26 21 26 57q0 39 -26 63
q-25 22 -64 22q-101 0 -101 -129v-275h96q19 -74 88 -74q39 0 66 27q27 26 27 65q0 47 -34 73v0z" />
    <glyph glyph-name="agrave" unicode="&#xe0;" horiz-adv-x="751" 
d="M690 865l-273 2l35 -64l272 -2zM455 771l-459 -758h231l62 105h235v-105h196v758h-265zM376 262l148 239v-239h-148z" />
    <glyph glyph-name="aacute" unicode="&#xe1;" horiz-adv-x="751" 
d="M755 865l-272 2l-31 -64l272 -2zM455 771l-459 -758h231l62 105h235v-105h196v758h-265zM376 262l148 239v-239h-148z" />
    <glyph glyph-name="acircumflex" unicode="&#xe2;" horiz-adv-x="751" 
d="M487 865l191 2l41 -64l-273 -2zM721 771v-758h-198v105h-234l-62 -105h-230l458 758h266zM523 262v239l-147 -239h147z" />
    <glyph glyph-name="atilde" unicode="&#xe3;" horiz-adv-x="751" 
d="M449 865l272 2v-64l-272 -2v64zM721 771v-758h-198v105h-234l-62 -105h-230l458 758h266zM523 262v239l-147 -239h147z" />
    <glyph glyph-name="adieresis" unicode="&#xe4;" horiz-adv-x="751" 
d="M561 866v-64l-112 -1v64zM606 866l115 1v-64l-115 -1v64zM721 771v-758h-198v105h-234l-62 -105h-230l458 758h266zM523 262v239l-147 -239h147z" />
    <glyph glyph-name="aring" unicode="&#xe5;" horiz-adv-x="751" 
d="M449 865l272 2v-64l-272 -2v64zM721 771v-758h-198v105h-234l-62 -105h-230l458 758h266zM523 262v239l-147 -239h147z" />
    <glyph glyph-name="ae" unicode="&#xe6;" horiz-adv-x="947" 
d="M523 118h-234l-62 -105h-230l458 758h475v-166h-213v-123h213v-165h-213v-138h213v-166h-407v105zM523 501l-147 -239h147v239z" />
    <glyph glyph-name="ccedilla" unicode="&#xe7;" horiz-adv-x="581" 
d="M297 -19h252v-63h-252v63zM550 571q-54 32 -113 32q-86 0 -146 -60q-61 -60 -61 -145t61 -145q60 -60 146 -60q64 0 113 34v-199q-54 -15 -116 -15q-166 0 -283 113q-118 113 -118 273t118 273q117 113 283 113q62 0 116 -16v-198z" />
    <glyph glyph-name="egrave" unicode="&#xe8;" horiz-adv-x="541" 
d="M220 814v-49l119 -1h94q24 1 24 2q-1 1 -17 5q-17 4 -82 17q-7 1 -17 3q-10 3 -17 4q-7 2 -16 4t-15 3l-17 3v0l-25 5q-24 6 -27 6t-4 -2v0zM140 364v-376h403v166h-210v136h210v164h-210v120h210v165h-403v-375z" />
    <glyph glyph-name="eacute" unicode="&#xe9;" horiz-adv-x="541" 
d="M445 814q-4 -1 -15 -3t-23 -5q-12 -2 -26 -5q-15 -3 -23 -5q-9 -2 -19 -4q-11 -3 -18 -4q-17 -3 -56 -11q-39 -9 -41 -10q-8 -2 14 -2q23 -1 103 -1l117 1l1 26v25h-3h-5l-6 -2v0zM140 364v-376h403v166h-210v136h210v164h-210v120h210v165h-403v-375z" />
    <glyph glyph-name="ecircumflex" unicode="&#xea;" horiz-adv-x="541" 
d="M178 865l191 2l41 -64l-273 -2zM69 13v758h420v-170h-235v-118h228v-170h-228v-130h235v-170h-420z" />
    <glyph glyph-name="edieresis" unicode="&#xeb;" horiz-adv-x="541" 
d="M250 866v-64l-113 -1v64zM295 866l115 1v-64l-115 -1v64zM69 13v758h420v-170h-235v-118h228v-170h-228v-130h235v-170h-420z" />
    <glyph glyph-name="igrave" unicode="&#xec;" horiz-adv-x="331" 
d="M115 814q4 -1 15 -3q11 -3 22 -5l48 -10q25 -6 48 -11l20 -4q11 -2 16 -3t8 -2q4 -1 4 -2h-29v0l-69 -1h-99v22q0 18 1 20q2 2 15 -1v0zM292 757q1 -1 1 -31v-725h-196v760h194z" />
    <glyph glyph-name="iacute" unicode="&#xed;" horiz-adv-x="331" 
d="M280 814q-4 -1 -15 -3q-11 -3 -22 -5l-48 -10q-25 -6 -48 -11l-20 -4q-11 -2 -16 -3t-8 -2q-4 -1 -4 -2h29v0l69 -1h99v22q0 18 -1 20q-2 2 -15 -1v0zM103 757q-1 -1 -1 -31v-725h196v760h-194z" />
    <glyph glyph-name="icircumflex" unicode="&#xee;" horiz-adv-x="331" 
d="M66 865l190 2l41 -64l-272 -2zM69 13v758h193v-758h-193z" />
    <glyph glyph-name="idieresis" unicode="&#xef;" horiz-adv-x="331" 
d="M139 866v-64l-112 -1v64zM184 866l115 1v-64l-115 -1v64zM69 13v758h193v-758h-193z" />
    <glyph glyph-name="eth" unicode="&#xf0;" horiz-adv-x="791" 
d="M657 118q-100 -105 -272 -105h-286v303h-68v170h68v285h255q228 0 331 -142q70 -96 70 -235q0 -173 -98 -276v0zM517 541q-47 60 -140 60h-84v-115h110v-170h-110v-133h83q185 0 185 208q0 95 -44 150v0z" />
    <glyph glyph-name="ntilde" unicode="&#xf1;" horiz-adv-x="777" 
d="M237 865l272 2v-64l-272 -2v64zM540 13l-289 461l-2 -1l5 -460h-185v758h167l292 -477l2 2l-8 475h186v-758h-168z" />
    <glyph glyph-name="ograve" unicode="&#xf2;" horiz-adv-x="871" 
d="M324 869q2 0 8 -1q6 -2 12 -3t13 -2q7 -2 11 -3q8 -2 13 -3t18 -3q3 -1 7 -2t7 -1q6 -2 11 -3q6 -1 21 -4q7 -2 15 -3l12 -3t9 -2t8 -1q3 -1 9 -2q6 -2 12 -3q5 -1 14 -3q10 -2 17 -3q11 -3 24 -5q13 -3 30 -7q3 0 5 -1q3 -1 3 -2q1 -1 -28 -1q-29 -1 -115 -1h-144v32v22
q1 9 2 9h2v0l4 -1v0zM489 769q71 -4 134 -33t115 -81q49 -49 77 -105q28 -57 37 -126q2 -16 2 -48q-1 -33 -3 -50q-9 -67 -37 -123t-76 -104q-42 -42 -90 -68q-48 -27 -103 -39q-36 -7 -80 -7q-44 -1 -79 5q-51 10 -98 33t-87 59q-51 45 -83 100q-32 56 -44 119q-4 22 -5 41
q-1 20 -1 47q1 47 10 85q10 38 29 77q15 30 32 54q18 24 45 50q18 19 31 29q13 11 33 24q42 28 88 43q47 15 101 18q19 2 25 2q6 -1 27 -2v0zM425 572q-31 -5 -58 -19q-27 -15 -50 -39q-26 -27 -39 -58q-14 -31 -16 -69q-1 -27 5 -55q7 -29 20 -51q15 -26 38 -48t48 -35
q39 -19 86 -19q47 -1 86 18q16 8 28 16q12 9 25 22q23 22 37 46q14 25 20 55q3 12 3 35q1 24 -1 39q-5 30 -18 57q-14 27 -37 49q-24 24 -50 38q-27 14 -59 19q-14 2 -33 2q-20 0 -35 -3v0z" />
    <glyph glyph-name="oacute" unicode="&#xf3;" horiz-adv-x="871" 
d="M611 869q-2 0 -8 -1q-6 -2 -12 -3t-13 -2q-7 -2 -11 -3q-8 -2 -13 -3t-18 -3q-3 -1 -7 -2t-7 -1q-6 -2 -11 -3q-6 -1 -21 -4q-7 -2 -15 -3l-12 -3t-9 -2t-8 -1q-3 -1 -9 -2q-6 -2 -12 -3q-5 -1 -14 -3q-10 -2 -17 -3q-11 -3 -24 -5q-13 -3 -30 -7q-3 0 -5 -1q-3 -1 -3 -2
q-1 -1 28 -1q29 -1 115 -1h144v32v22q-1 9 -2 9h-2v0l-4 -1v0zM446 769q-71 -4 -134 -33t-115 -81q-49 -49 -77 -105q-28 -57 -37 -126q-2 -16 -2 -48q1 -33 3 -50q9 -67 37 -123t76 -104q42 -42 90 -68q48 -27 103 -39q36 -7 80 -7q44 -1 79 5q51 10 98 33t87 59
q51 45 83 100q32 56 44 119q4 22 5 41q1 20 1 47q-1 47 -10 85q-10 38 -29 77q-15 30 -32 54q-18 24 -45 50q-18 19 -31 29q-13 11 -33 24q-42 28 -88 43q-47 15 -101 18q-19 2 -25 2q-6 -1 -27 -2v0zM510 572q31 -5 58 -19q27 -15 50 -39q26 -27 39 -58q14 -31 16 -69
q1 -27 -5 -55q-7 -29 -20 -51q-15 -26 -38 -48t-48 -35q-39 -19 -86 -19q-47 -1 -86 18q-16 8 -28 16q-12 9 -25 22q-23 22 -37 46q-14 25 -20 55q-3 12 -3 35q-1 24 1 39q5 30 18 57q14 27 37 49q24 24 50 38q27 14 59 19q14 2 33 2q20 0 35 -3v0z" />
    <glyph glyph-name="ocircumflex" unicode="&#xf4;" horiz-adv-x="871" 
d="M338 865l190 2l41 -64l-272 -2zM718 111q-116 -113 -284 -113q-163 0 -279 111q-119 112 -119 273q0 83 30 162q15 41 49 85q118 156 320 156q169 0 284 -113q117 -114 117 -280q0 -167 -118 -281zM586 547q-60 68 -150 68q-91 0 -149 -66q-58 -64 -58 -155
q0 -93 58 -158q59 -68 151 -68q89 0 148 68q56 65 56 155q0 91 -56 156z" />
    <glyph glyph-name="otilde" unicode="&#xf5;" horiz-adv-x="871" 
d="M293 865l272 2v-64l-272 -2v64zM718 111q-116 -113 -284 -113q-163 0 -279 111q-119 112 -119 273q0 83 30 162q15 41 49 85q118 156 320 156q169 0 284 -113q117 -114 117 -280q0 -167 -118 -281zM586 547q-60 68 -150 68q-91 0 -149 -66q-58 -64 -58 -155
q0 -93 58 -158q59 -68 151 -68q89 0 148 68q56 65 56 155q0 91 -56 156z" />
    <glyph glyph-name="odieresis" unicode="&#xf6;" horiz-adv-x="871" 
d="M410 866v-64l-113 -1v64zM455 866l114 1v-64l-114 -1v64zM718 111q-116 -113 -284 -113q-163 0 -279 111q-119 112 -119 273q0 83 30 162q15 41 49 85q118 156 320 156q169 0 284 -113q117 -114 117 -280q0 -167 -118 -281zM586 547q-60 68 -150 68q-91 0 -149 -66
q-58 -64 -58 -155q0 -93 58 -158q59 -68 151 -68q89 0 148 68q56 65 56 155q0 91 -56 156z" />
    <glyph glyph-name="divide" unicode="&#xf7;" horiz-adv-x="614" 
d="M226 425v164h161v-164h-161zM49 190v164h516v-164h-516zM226 -46v164h161v-164h-161z" />
    <glyph glyph-name="oslash" unicode="&#xf8;" horiz-adv-x="682" 
d="M560 80q-87 -86 -218 -86q-68 0 -124 24l-66 -90l-108 82l62 84q-71 81 -71 201q0 133 88 219q87 86 219 86q70 0 124 -24l62 85l110 -79l-64 -85q73 -87 73 -200q0 -130 -87 -217v0zM465 357l-150 -201q13 -3 26 -3q59 0 98 43q38 41 38 101q0 29 -12 60zM370 438
q-14 3 -28 3q-59 0 -98 -42t-39 -102q0 -35 13 -63z" />
    <glyph glyph-name="ugrave" unicode="&#xf9;" horiz-adv-x="715" 
d="M318 882q6 -1 14 -2l12 -3q5 -1 11 -2q6 -2 10 -2q8 -2 18 -4q11 -3 55 -12q38 -8 53 -11q16 -3 31 -7q6 -1 10 -2l5 -2q0 -1 -30 -1q-31 -1 -89 -1h-119v47v0l2 6q1 0 6 -1t11 -3zM708 526q0 -199 -1 -232q-1 -34 -6 -58q-16 -67 -65 -123q-50 -56 -116 -81
q-41 -15 -86 -17q-46 -2 -90 8q-38 10 -71 29q-33 20 -63 49q-28 29 -46 61q-19 32 -29 69q-6 26 -7 60t-1 236v246h194v-246q0 -202 1 -231t8 -44q6 -14 18 -26q13 -13 27 -20q18 -9 41 -9q23 -1 41 7q15 7 27 19q13 13 20 28q8 16 9 44t1 232v246h194v-247z" />
    <glyph glyph-name="uacute" unicode="&#xfa;" horiz-adv-x="715" 
d="M511 882q-6 -1 -14 -2l-12 -3q-5 -1 -11 -2q-6 -2 -9 -2q-8 -2 -19 -4q-11 -3 -55 -12q-38 -8 -53 -11t-31 -7q-6 -1 -10 -2l-5 -2q0 -1 30 -1q31 -1 89 -1h119v47v0l-2 6q-1 0 -6 -1t-11 -3zM121 526q0 -199 1 -232q1 -34 6 -58q16 -67 66 -123t116 -81q40 -15 86 -17
t89 8q38 10 71 29q33 20 63 49q28 29 46 61q19 32 29 69q6 26 7 60t1 236v246h-194v-246q0 -202 -1 -231t-8 -44q-6 -14 -18 -26q-13 -13 -27 -20q-18 -9 -40 -9q-23 -1 -42 7q-15 7 -27 19q-13 13 -20 28q-8 16 -9 44t-1 232v246h-194v-247z" />
    <glyph glyph-name="ucircumflex" unicode="&#xfb;" horiz-adv-x="715" 
d="M506 880v-59h-281q-1 1 0 1q2 1 8 2q2 1 6 1q4 1 6 2t5 1q4 1 6 1q2 1 5 1q3 1 5 2q4 0 12 2t28 6q8 2 14 3t11 2q2 1 4 1q2 1 4 1t5 1l8 2q3 1 9 2t11 2q4 1 10 2t10 2t9 2t8 2q4 1 7 1q4 1 5 1q2 1 5 1q3 1 5 1q2 1 6 2q5 1 8 1q4 1 10 2q7 2 13 3q16 3 26 5l11 3v0v0
l1 -2v0zM651 753q1 -1 1 -73v-323q-1 -74 -1 -78l-4 -28q-3 -14 -5 -23q-1 -1 -1 -2q-1 -2 -1 -4q-4 -14 -9 -26q-6 -13 -15 -29q-1 -3 -8 -13t-8 -12l-2 -2v0l-4 -6q-7 -9 -13 -16l-15 -15q-18 -18 -36 -30q-18 -13 -39 -23q-17 -9 -31 -13q-14 -5 -34 -10q-3 0 -10 -1
l-14 -2v0l-33 -1q-34 -1 -35 1q-32 4 -59 13t-53 24q-31 19 -58 47q-28 29 -45 60q-6 12 -12 25q-7 14 -10 25q-5 17 -8 32t-4 30v61q-1 56 -1 181l1 231l103 1h77q26 -1 27 -1t1 -31v-205l1 -235l2 -7q3 -12 9 -22q7 -10 17 -17q9 -8 18 -11q9 -4 21 -5q18 -2 35 4
q17 7 29 22q6 7 9 13q4 7 6 16l2 7v235l1 236h1q1 1 31 1h73h84z" />
    <glyph glyph-name="udieresis" unicode="&#xfc;" horiz-adv-x="715" 
d="M328 866v-64l-113 -1v64zM373 866l114 1v-64l-114 -1v64zM648 313q0 -157 -76 -233q-80 -82 -212 -82q-141 0 -218 81q-75 80 -75 234v458h193v-458q0 -145 98 -145q61 0 82 46q15 29 15 99v458h193v-458z" />
    <glyph glyph-name="yacute" unicode="&#xfd;" horiz-adv-x="663" 
d="M219 865l273 2l-35 -64l-273 -2zM429 288v-275h-193v275l-227 483h210l113 -305l113 305h208z" />
    <glyph glyph-name="thorn" unicode="&#xfe;" horiz-adv-x="651" 
d="M559 218q-76 -66 -221 -66h-84v-139h-185v758h185v-100l81 1q149 0 215 -55q89 -75 89 -201q0 -129 -80 -198zM326 502h-72v-180h79q121 0 121 91q0 89 -128 89v0z" />
    <glyph glyph-name="ydieresis" unicode="&#xff;" horiz-adv-x="663" 
d="M328 866v-64l-113 -1v64zM373 866l114 1v-64l-114 -1v64zM429 288v-275h-193v275l-227 483h210l113 -305l113 305h208z" />
    <glyph glyph-name="dotlessi" unicode="&#x131;" horiz-adv-x="293" 
d="M61 13v568h170v-568h-170z" />
    <glyph glyph-name="Lslash" unicode="&#x141;" horiz-adv-x="499" 
d="M74 13v210l-67 -48v192l67 48v356h193v-217l112 80v-192l-112 -80v-179h225v-170h-418z" />
    <glyph glyph-name="lslash" unicode="&#x142;" horiz-adv-x="350" 
d="M258 354v-341h-170v231l-62 -40v176l62 40v351h170v-241l67 43v-176z" />
    <glyph glyph-name="OE" unicode="&#x152;" horiz-adv-x="1111" 
d="M638 13v50q-91 -65 -209 -65q-164 0 -278 114q-115 114 -115 278q0 169 115 282q114 113 283 113q117 0 204 -65v51h422v-170h-236v-118h228v-170h-228v-130h236v-170h-422zM582 549q-58 66 -149 66q-92 0 -149 -68q-55 -64 -55 -157q0 -90 56 -154q58 -68 147 -68
q93 0 151 68q54 65 54 159q0 92 -55 154z" />
    <glyph glyph-name="oe" unicode="&#x153;" horiz-adv-x="1111" 
d="M638 13v50q-91 -65 -209 -65q-164 0 -278 114q-115 114 -115 278q0 169 115 282q114 113 283 113q117 0 204 -65v51h422v-170h-236v-118h228v-170h-228v-130h236v-170h-422zM582 549q-58 66 -149 66q-92 0 -149 -68q-55 -64 -55 -157q0 -90 56 -154q58 -68 147 -68
q93 0 151 68q54 65 54 159q0 92 -55 154z" />
    <glyph glyph-name="Scaron" unicode="&#x160;" horiz-adv-x="587" 
d="M487 55q-70 -57 -188 -57q-120 0 -194 60q-79 64 -79 181v25h192q0 -42 19 -70q21 -34 60 -34q31 0 52 22q22 20 22 51q0 48 -81 83q-23 10 -68 29q-185 76 -185 217q0 100 84 165q78 58 181 58q134 0 205 -86q47 -58 50 -150h-191q-12 74 -70 74q-27 0 -46 -16
q-21 -18 -21 -43q0 -21 8 -32q13 -23 149 -84q87 -40 126 -81q51 -54 51 -136q0 -115 -76 -176v0zM346 840h-110l-155 170h165l47 -59l47 59h165z" />
    <glyph glyph-name="scaron" unicode="&#x161;" horiz-adv-x="511" 
d="M415 42q-65 -49 -159 -49q-93 0 -156 47q-66 52 -75 142h169q8 -52 64 -52q22 0 39 11q20 12 20 33q0 26 -26 44q-9 5 -50 21q-50 16 -74 26q-135 49 -135 148q0 85 68 138q64 50 152 50q89 0 147 -44q63 -49 71 -136h-167q-1 43 -53 43q-48 0 -48 -38q0 -28 45 -47
q15 -6 45 -15q41 -11 53 -15q142 -47 142 -162q0 -91 -72 -145v0zM308 661h-110l-155 170h165l47 -59l47 59h165z" />
    <glyph glyph-name="Ydieresis" unicode="&#x178;" horiz-adv-x="663" 
d="M328 866v-64l-113 -1v64zM373 866l114 1v-64l-114 -1v64zM429 288v-275h-193v275l-227 483h210l113 -305l113 305h208z" />
    <glyph glyph-name="Zcaron" unicode="&#x17d;" horiz-adv-x="511" 
d="M16 13v127l262 461h-262v170h479v-157l-242 -431h242v-170h-479zM324 840h-111l-155 170h165l47 -59l47 59h165z" />
    <glyph glyph-name="zcaron" unicode="&#x17e;" horiz-adv-x="455" 
d="M15 13v117l240 322h-240v129h423v-129l-222 -310h222v-129h-423zM306 661h-110l-155 170h165l47 -59l47 59h165z" />
    <glyph glyph-name="florin" unicode="&#x192;" horiz-adv-x="633" 
d="M538 711q-46 0 -68 -24q-18 -21 -26 -69h75l-23 -128h-74l-58 -334q-27 -146 -73 -205q-76 -94 -210 -94q-35 0 -55 6l26 152q13 -2 19 -2q59 0 85 33q20 25 30 88l62 356h-74l22 128h74l6 33q18 89 83 144q67 55 158 55q29 0 43 -3z" />
    <glyph glyph-name="circumflex" unicode="&#x2c6;" 
d="M332 658l-47 59l-47 -59h-166l159 170h111l154 -170h-164z" />
    <glyph glyph-name="caron" unicode="&#x2c7;" 
d="M337 651h-111l-154 170h165l47 -60l47 60h165z" />
    <glyph glyph-name="uni02C9" unicode="&#x2c9;" 
d="M100 676v129h368v-129h-368z" />
    <glyph glyph-name="breve" unicode="&#x2d8;" 
d="M495 809q-6 -77 -72 -115q-55 -32 -139 -32q-85 0 -140 32q-65 38 -71 115h115q29 -35 101 -35q66 0 90 35h116z" />
    <glyph glyph-name="dotaccent" unicode="&#x2d9;" 
d="M203 662v155h163v-155h-163z" />
    <glyph glyph-name="ring" unicode="&#x2da;" 
d="M375 634q-38 -38 -91 -38q-54 0 -91 38q-38 38 -38 92q0 53 38 91q37 38 91 38q53 0 91 -38t38 -91q0 -54 -38 -92zM315 758q-13 14 -31 14q-20 0 -32 -14q-13 -13 -13 -32t13 -31q13 -14 32 -14q18 0 31 14q14 13 14 32q0 18 -14 31v0z" />
    <glyph glyph-name="ogonek" unicode="&#x2db;" 
d="M389 -182q-49 -16 -88 -16q-50 0 -84 23q-38 28 -38 76q0 53 85 112h86q-58 -33 -58 -70q0 -19 15 -34t34 -15q17 0 48 12v-88z" />
    <glyph glyph-name="tilde" unicode="&#x2dc;" 
d="M492 707q-61 -38 -116 -38q-26 0 -83 13q-56 14 -81 14t-74 -20l-61 90q62 36 112 36q29 0 83 -12q56 -13 83 -13q34 0 75 17z" />
    <glyph glyph-name="hungarumlaut" unicode="&#x2dd;" 
d="M417 627l-109 48l77 190l120 -59zM213 627l-109 48l76 190l121 -59z" />
    <glyph glyph-name="uni03A9" unicode="&#x3a9;" horiz-adv-x="727" 
d="M394 13v155q74 92 74 222q0 84 -27 132q-26 49 -74 49q-53 0 -81 -50q-29 -50 -29 -138q0 -130 75 -215v-155h-284v155h137q-140 113 -140 266q0 134 90 221q91 87 236 87q149 0 232 -89q78 -83 78 -215q0 -160 -141 -270h138v-155h-284z" />
    <glyph glyph-name="uni03BC" unicode="&#x3bc;" horiz-adv-x="649" 
d="M433 13v70h-3q-26 -80 -104 -80q-71 0 -101 55h-2v-240h-170v763h170v-280q0 -148 101 -148t101 148v280h170v-568h-162z" />
    <glyph glyph-name="pi" unicode="&#x3c0;" horiz-adv-x="669" 
d="M645 31q-45 -29 -126 -29q-90 0 -123 58q-22 40 -22 129v199h-83v-201q0 -113 -22 -174h-173q25 77 25 192v183q-42 0 -67 -18q-6 13 -23 56q-14 34 -24 56q61 43 187 43h439v-137h-90v-169q0 -81 38 -81q17 0 33 12z" />
    <glyph glyph-name="endash" unicode="&#x2013;" horiz-adv-x="512" 
d="M36 225v167h440v-167h-440z" />
    <glyph glyph-name="emdash" unicode="&#x2014;" 
d="M36 225v167h952v-167h-952z" />
    <glyph glyph-name="quoteleft" unicode="&#x2018;" horiz-adv-x="322" 
d="M72 432v215q0 51 26 86q29 38 78 38h74v-92q-41 0 -51 -2q-29 -8 -29 -36v-35h80v-174h-178z" />
    <glyph glyph-name="quoteright" unicode="&#x2019;" horiz-adv-x="322" 
d="M250 556q0 -53 -26 -86q-28 -38 -79 -38h-73v91q42 0 52 3q29 7 29 36v34h-81v175h178v-215z" />
    <glyph glyph-name="quotesinglbase" unicode="&#x201a;" horiz-adv-x="322" 
d="M250 -28q0 -51 -26 -86q-29 -38 -79 -38h-73v91q42 0 52 3q29 7 29 36v35h-81v174h178v-215z" />
    <glyph glyph-name="quotedblleft" unicode="&#x201c;" 
d="M322 432v215q0 51 26 86q29 38 78 38h74v-93q-41 0 -51 -2q-30 -7 -30 -35v-35h81v-174h-178zM69 432v215q0 51 26 86q29 38 78 38h74v-93q-41 0 -51 -2q-30 -7 -30 -35v-35h81v-174h-178z" />
    <glyph glyph-name="quotedblright" unicode="&#x201d;" 
d="M500 556q0 -53 -26 -86q-29 -38 -79 -38h-73v91q40 0 51 3q28 7 28 36v34h-79v175h178v-215zM247 556q0 -53 -26 -86q-28 -38 -79 -38h-73v91q42 0 52 3q29 7 29 36v34h-81v175h178v-215z" />
    <glyph glyph-name="quotedblbase" unicode="&#x201e;" 
d="M500 -28q0 -51 -26 -86q-30 -38 -79 -38h-73v91q40 0 51 3q28 7 28 36v35h-79v174h178v-215zM247 -28q0 -52 -27 -86q-29 -38 -79 -38h-72v91q41 0 51 3q28 7 28 36v35h-79v174h178v-215z" />
    <glyph glyph-name="dagger" unicode="&#x2020;" horiz-adv-x="686" 
d="M428 446v-683h-169v683h-159v143h159v182h169v-182h158v-143h-158z" />
    <glyph glyph-name="daggerdbl" unicode="&#x2021;" horiz-adv-x="686" 
d="M428 -1v-236h-169v236h-159v144h159v334h-159v143h159v151h169v-151h158v-143h-158v-334h158v-144h-158z" />
    <glyph glyph-name="bullet" unicode="&#x2022;" horiz-adv-x="757" 
d="M489 287q-46 -47 -110 -47q-65 0 -111 47t-46 112t46 111q46 48 112 48q64 0 109 -48q46 -47 46 -111q0 -65 -46 -112v0z" />
    <glyph glyph-name="ellipsis" unicode="&#x2026;" 
d="M765 13v174h177v-174h-177zM424 13v174h177v-174h-177zM83 13v174h177v-174h-177z" />
    <glyph glyph-name="perthousand" unicode="&#x2030;" horiz-adv-x="1288" 
d="M1197 52q-54 -55 -130 -55q-77 0 -131 55q-54 54 -54 131t54 131t131 54t131 -54q53 -54 53 -131q0 -76 -54 -131zM787 52q-54 -55 -130 -55t-131 55q-54 54 -54 131t54 131q55 54 131 54q77 0 131 -54t54 -131q0 -76 -55 -131zM339 13h-118l314 758h118zM351 471
q-54 -55 -130 -55t-130 55q-54 54 -54 130t54 131q53 54 130 54t131 -54q54 -55 54 -131t-55 -130zM1117 233q-20 21 -50 21t-51 -20q-21 -22 -21 -51t22 -50q21 -22 50 -22t50 22q21 20 21 50q0 29 -21 50zM708 233q-21 21 -51 21q-29 0 -51 -20q-20 -22 -20 -51t21 -50
q22 -22 50 -22q29 0 51 22q20 20 20 50q0 29 -20 50zM271 652q-20 20 -50 20t-50 -20q-20 -22 -20 -51t21 -50t49 -21q29 0 50 21t21 51q0 29 -21 50z" />
    <glyph glyph-name="guilsinglleft" unicode="&#x2039;" horiz-adv-x="227" 
d="M48 248v117l131 133v-143l-52 -46l52 -48v-143z" />
    <glyph glyph-name="guilsinglright" unicode="&#x203a;" horiz-adv-x="227" 
d="M48 118v144l52 46l-52 48v142l131 -134v-116z" />
    <glyph glyph-name="fraction" unicode="&#x2044;" horiz-adv-x="216" 
d="M18 13h-139l318 758h140z" />
    <glyph glyph-name="Euro" unicode="&#x20ac;" horiz-adv-x="633" 
d="M611 230q-31 -232 -243 -232q-224 0 -263 274h-95l19 98h68v45h-87l19 99h79q48 271 264 271q100 0 165 -65q60 -61 73 -162h-168q-19 57 -70 57q-67 0 -84 -101h211l-19 -99h-201v-45h193l-18 -98h-166q20 -104 86 -104q52 0 69 62h168z" />
    <glyph glyph-name="uni2113" unicode="&#x2113;" horiz-adv-x="507" 
d="M427 47q-70 -53 -151 -53q-76 0 -121 45q-51 52 -51 155v20q-5 -5 -22 -21q-14 -13 -24 -20q-6 13 -20 39l-21 40l87 78v186q0 116 53 181q50 61 135 61q73 0 109 -47q31 -39 31 -96q0 -123 -125 -257q-32 -32 -32 -33l1 1v-102q0 -101 54 -101q25 0 55 26zM312 629
q-36 0 -36 -71v-108q6 3 10 10q56 60 56 131q0 38 -30 38z" />
    <glyph glyph-name="trademark" unicode="&#x2122;" horiz-adv-x="967" 
d="M780 316l2 308h-2l-89 -308h-86l-92 308l-2 -2l4 -306h-120v455h163l89 -284h2l88 284h163v-455h-120zM244 662v-346h-129v346h-93v109h314v-109h-92z" />
    <glyph glyph-name="Omega" unicode="&#x2126;" horiz-adv-x="727" 
d="M394 13v155q74 92 74 222q0 84 -27 132q-26 49 -74 49q-53 0 -81 -50q-29 -50 -29 -138q0 -130 75 -215v-155h-284v155h137q-140 113 -140 266q0 134 90 221q91 87 236 87q149 0 232 -89q78 -83 78 -215q0 -160 -141 -270h138v-155h-284z" />
    <glyph glyph-name="estimated" unicode="&#x212e;" horiz-adv-x="678" 
d="M160 290v-190q61 -62 152 -62q129 0 203 125l36 -21q-95 -141 -239 -141q-123 0 -198 83q-73 81 -73 206q0 124 73 205q74 84 197 84q126 0 201 -83q71 -79 76 -206h-428zM465 479q-65 64 -155 64q-89 0 -150 -63v-153h305v152z" />
    <glyph glyph-name="onethird" unicode="&#x2153;" horiz-adv-x="876" 
d="M100 316v346h-80v109h206v-455h-126zM288 13h-140l318 758h140zM786 40q-54 -36 -122 -36q-108 0 -154 63q-24 33 -29 86h132q11 -39 52 -39q49 0 49 44q0 40 -69 40l-38 -1v92h19q67 0 67 43q0 34 -33 34q-34 0 -36 -36h-129q1 71 51 111q47 36 119 36q60 0 105 -32
q50 -36 50 -94q0 -63 -58 -94q85 -27 85 -109q0 -66 -61 -108v0z" />
    <glyph glyph-name="twothirds" unicode="&#x2154;" horiz-adv-x="1022" 
d="M36 316v99q141 90 180 146q25 34 25 67q0 42 -36 42q-46 0 -48 -69h-126q2 68 29 108q51 71 154 71q66 0 114 -33q55 -38 55 -101q0 -68 -61 -137q-35 -38 -94 -83v-2h157v-108h-349zM439 13h-139l317 758h141zM933 40q-54 -36 -123 -36q-108 0 -154 63q-23 33 -28 86
h132q10 -39 51 -39q49 0 49 44q0 40 -68 40l-38 -1v92h18q68 0 68 43q0 34 -33 34q-35 0 -37 -36h-129q1 71 51 111q47 36 119 36q60 0 105 -32q51 -36 51 -94q0 -63 -59 -94q85 -27 85 -109q0 -66 -60 -108v0z" />
    <glyph glyph-name="oneeighth" unicode="&#x215b;" horiz-adv-x="877" 
d="M100 316v346h-80v109h206v-455h-126zM288 13h-140l318 758h140zM793 45q-54 -41 -131 -41q-78 0 -133 41q-56 42 -56 107q0 77 71 114q-42 30 -42 80q0 58 47 95q46 36 111 36q66 0 111 -36q48 -37 48 -95q0 -53 -42 -83q71 -38 71 -111q0 -65 -55 -107zM660 216
q-53 0 -53 -54q0 -52 56 -52q51 0 51 52q0 54 -54 54zM662 380q-44 0 -44 -40q0 -35 41 -35q43 0 43 39q0 36 -40 36v0z" />
    <glyph glyph-name="threeeighths" unicode="&#x215c;" horiz-adv-x="1008" 
d="M328 344q-55 -37 -123 -37q-108 0 -154 63q-23 33 -28 86h132q10 -39 51 -39q49 0 49 44q0 40 -69 40l-38 -1v92h19q67 0 67 43q0 34 -32 34q-35 0 -37 -36h-129q1 71 51 111q47 36 119 36q60 0 105 -32q50 -36 50 -94q0 -63 -58 -94q85 -27 85 -109q0 -65 -60 -107z
M418 13h-139l317 758h140zM924 45q-54 -41 -131 -41q-78 0 -133 41q-56 42 -56 107q0 77 71 114q-42 30 -42 80q0 58 47 95q46 36 112 36q65 0 110 -36q48 -37 48 -95q0 -53 -42 -83q71 -38 71 -111q0 -65 -55 -107v0zM792 216q-54 0 -54 -54q0 -52 56 -52q51 0 51 52
q0 54 -53 54zM793 380q-43 0 -43 -40q0 -35 41 -35q43 0 43 39q0 36 -41 36v0z" />
    <glyph glyph-name="fiveeighths" unicode="&#x215d;" horiz-adv-x="1009" 
d="M345 354q-52 -47 -133 -47q-72 0 -123 39q-52 39 -65 105h128q16 -34 55 -34q58 0 58 55q0 49 -57 49q-37 0 -61 -28l-103 25l38 253h273v-109h-172l-9 -54q23 14 64 14q71 0 115 -40q45 -41 45 -107q0 -74 -53 -121zM420 13h-139l317 758h140zM925 45q-54 -41 -131 -41
q-78 0 -132 41q-57 42 -57 107q0 77 71 114q-42 30 -42 80q0 58 47 95q46 36 112 36q65 0 110 -36q48 -37 48 -95q0 -53 -42 -83q71 -38 71 -111q0 -65 -55 -107v0zM793 216q-54 0 -54 -54q0 -52 56 -52q51 0 51 52q0 54 -53 54zM794 380q-43 0 -43 -40q0 -35 41 -35
q43 0 43 39q0 36 -41 36v0z" />
    <glyph glyph-name="seveneighths" unicode="&#x215e;" horiz-adv-x="909" 
d="M181 316h-142l174 346h-185v109h323v-98zM319 13h-139l318 758h140zM825 45q-53 -41 -131 -41t-132 41q-56 42 -56 107q0 77 71 114q-42 30 -42 80q0 58 47 95q46 36 111 36q66 0 111 -36q48 -37 48 -95q0 -53 -42 -83q71 -38 71 -111q0 -65 -56 -107zM693 216
q-53 0 -53 -54q0 -52 55 -52q51 0 51 52q0 54 -53 54zM694 380q-43 0 -43 -40q0 -35 41 -35q43 0 43 39q0 36 -41 36v0z" />
    <glyph glyph-name="partialdiff" unicode="&#x2202;" horiz-adv-x="590" 
d="M562 275q-34 -128 -110 -200q-78 -74 -184 -74q-105 0 -173 62q-66 62 -66 157q0 147 84 226q68 65 169 65q78 0 110 -43h1q3 25 3 42q0 55 -29 85q-30 31 -79 31q-50 0 -94 -25l-35 123q59 41 158 41q123 0 195 -79q72 -81 72 -223q0 -102 -22 -188zM323 385
q-38 0 -68 -51q-31 -53 -31 -128q0 -62 44 -62t76 71q28 58 32 128q-19 42 -53 42z" />
    <glyph glyph-name="Delta" unicode="&#x2206;" horiz-adv-x="623" 
d="M19 13v77l190 640h286l184 -640v-77h-660zM446 169l-86 346q-15 70 -16 70h-6q-3 -27 -12 -66l-87 -350h207z" />
    <glyph glyph-name="product" unicode="&#x220f;" horiz-adv-x="736" 
d="M475 -223v783h-215v-783h-200v953h615v-953h-200z" />
    <glyph glyph-name="summation" unicode="&#x2211;" horiz-adv-x="646" 
d="M26 -223v110l230 372l-110 178q-72 119 -109 177v116h508v-156h-280l189 -311l-200 -330h306v-156h-534z" />
    <glyph glyph-name="minus" unicode="&#x2212;" horiz-adv-x="614" 
d="M49 190v164h516v-164h-516z" />
    <glyph glyph-name="uni2215" unicode="&#x2215;" horiz-adv-x="216" 
d="M18 13h-139l318 758h140z" />
    <glyph glyph-name="uni2219" unicode="&#x2219;" horiz-adv-x="322" 
d="M73 312v174h177v-174h-177z" />
    <glyph glyph-name="radical" unicode="&#x221a;" horiz-adv-x="525" 
d="M16 318l195 138q17 -46 50 -138q34 -92 50 -139l114 580h119l-154 -758h-156l-103 269q-18 -12 -55 -39z" />
    <glyph glyph-name="infinity" unicode="&#x221e;" horiz-adv-x="802" 
d="M708 166q-57 -55 -139 -55q-113 0 -178 95h-2q-71 -95 -178 -95q-75 0 -130 47q-67 57 -67 155q0 92 67 148q57 48 131 48q111 0 176 -96h2q64 96 179 96q83 0 140 -57q56 -56 56 -139q0 -89 -57 -147v0zM606 363q-19 22 -53 22q-51 0 -94 -74q38 -76 96 -76q32 0 52 24
q19 22 19 54q0 31 -20 50v0zM225 386q-29 0 -51 -23q-20 -23 -20 -51q0 -31 20 -53q21 -24 53 -24q54 0 94 76q-50 75 -96 75v0z" />
    <glyph glyph-name="integral" unicode="&#x222b;" horiz-adv-x="503" 
d="M422 631q-24 7 -38 7q-52 0 -52 -72v-557q0 -242 -214 -242q-69 0 -106 16l32 135q17 -7 38 -7q53 0 53 73v553q0 246 216 246q71 0 108 -20z" />
    <glyph glyph-name="approxequal" unicode="&#x2248;" horiz-adv-x="614" 
d="M594 391q-27 -35 -78 -62q-53 -28 -99 -28q-39 0 -108 34q-67 35 -116 35q-33 0 -69 -22t-50 -48l-54 134q21 38 76 65q52 26 102 26q41 0 117 -35q78 -35 103 -35q70 0 123 72zM594 114q-27 -35 -78 -61q-53 -29 -99 -29q-39 0 -108 35q-67 35 -116 35q-33 0 -69 -23
q-36 -21 -50 -48l-54 134q21 38 76 66q52 25 102 25q41 0 117 -34q78 -35 103 -35q70 0 123 71z" />
    <glyph glyph-name="notequal" unicode="&#x2260;" horiz-adv-x="614" 
d="M484 473h81v-149h-146l-54 -105h200v-149h-267l-45 -88h-169l45 88h-80v149h147l54 105h-201v149h267l46 88h168z" />
    <glyph glyph-name="lessequal" unicode="&#x2264;" horiz-adv-x="614" 
d="M47 336v158l520 219v-179l-348 -118v-2l348 -118v-179zM49 -71v164h516v-164h-516z" />
    <glyph glyph-name="greaterequal" unicode="&#x2265;" horiz-adv-x="614" 
d="M47 117v179l348 118v2l-348 118v179l520 -219v-158zM49 -71v164h516v-164h-516z" />
    <glyph glyph-name="lozenge" unicode="&#x25ca;" horiz-adv-x="572" 
d="M496 371l-196 -358h-85q-32 59 -97 179l-98 178l195 360h85zM365 371l-107 207q-72 -137 -106 -207q34 -69 106 -207z" />
    <glyph glyph-name="uniE900" unicode="&#xe900;" horiz-adv-x="0" 
d="M0 0v0v0v0z" />
    <glyph glyph-name="uniE901" unicode="&#xe901;" horiz-adv-x="0" 
d="M0 0v0v0v0z" />
    <glyph glyph-name="uniE902" unicode="&#xe902;" horiz-adv-x="0" 
d="M0 0v0v0v0z" />
    <glyph glyph-name="uniE903" unicode="&#xe903;" horiz-adv-x="512" 
d="M12 694h487v-681h-487v681zM256 397l165 249h-331zM61 106q0 -1 165 248l-165 248v-496zM285 354l166 -249v497zM256 310l-166 -248h331z" />
  </font>
</defs>
</svg>
