<svg xmlns="http://www.w3.org/2000/svg" width="256" height="40" viewBox="0 0 256 40" fill="none"><g clip-path="url(#clip0_524_147)"><path fill-rule="evenodd" clip-rule="evenodd" d="M20.36 7.056V.48H0v6.576h5.95v31.823h8.734V7.056h5.677zm22.981 31.823V.48h-8.788v16.08h-3.93V.48h-8.734v38.4h8.734V23.376h3.93v15.503h8.788zm18.941 0v-6.816h-8.46v-9.695h5.567v-6.816h-5.568V6.816h8.461V.48H45.087v38.4h17.195zm30.677-7.008v-8.303c0-1.824-1.092-3.216-3.384-4.224 2.292-1.008 3.384-2.448 3.384-4.224V7.488c0-4.896-4.749-7.008-8.952-7.008h-10.7v38.4h10.7c4.203 0 8.952-2.112 8.952-7.009zM84.77 14.544c0 1.056-.546 1.488-1.474 1.488h-1.255V7.296h1.255c.928 0 1.474.432 1.474 1.536v5.712zm0 16.031c0 1.104-.546 1.536-1.474 1.536h-1.255v-9.263h1.255c.928 0 1.474.433 1.474 1.536v6.191zm31.114.769V8.016C115.885 4.128 111.3 0 105.513 0c-5.786 0-10.371 4.128-10.371 8.016v23.328c0 3.887 4.585 8.015 10.371 8.015 5.787 0 10.372-4.128 10.372-8.015zm-8.679.287c0 .672-.765 1.152-1.693 1.152s-1.692-.48-1.692-1.152V7.728c0-.672.764-1.152 1.692-1.152.928 0 1.693.48 1.693 1.152V31.63zm31.932.192V.48h-8.025v31.15c0 .672-.763 1.152-1.691 1.152s-1.693-.48-1.693-1.152V.48h-8.406v31.343c0 3.888 4.313 7.536 10.099 7.536 5.786 0 9.716-3.648 9.716-7.536zm24.18 7.056L150.764.48h-8.734l12.499 38.4h8.789zm23.691-7.008V7.488c0-4.896-5.349-7.008-9.552-7.008h-11.409v38.4h11.409c4.203 0 9.552-2.112 9.552-7.009zm-8.789-1.296c0 1.104-.545 1.536-1.473 1.536h-1.965V7.296h1.965c.928 0 1.473.432 1.473 1.536v21.743zm31.715 8.304L204.04.48h-10.426l-5.786 38.4h7.751l.819-6h3.93l.546 6h9.061zm-10.099-12.815h-2.728l1.637-12.624 1.091 12.624zm33.08 12.815c-.491-1.871-1.092-3.984-1.092-6.432v-7.92c0-1.823-1.583-3.215-3.821-4.223 2.238-1.008 3.657-2.4 3.657-4.224V7.488c0-4.896-5.076-7.008-9.28-7.008H211.68v38.4h8.734V23.375h1.146c1.202 0 1.802.672 1.802 1.488v8.063c0 2.016.437 4.272 1.092 5.952h8.461zm-9.771-23.375c0 1.104-.546 1.536-1.474 1.536h-1.256V7.296h1.256c.928 0 1.474.432 1.474 1.536v6.672zM255.57.48h-8.025l-3.002 12.816L241.213.48h-8.353l6.988 21.84v16.56h8.461V22.32L255.57.48z" fill="#454D3C"/></g><defs><clipPath id="clip0_524_147"><path fill="#fff" d="M0 0h256v40H0z"/></clipPath></defs></svg>