<svg xmlns="http://www.w3.org/2000/svg" width="922" height="145" viewBox="0 0 922 145" fill="none"><g clip-path="url(#clip0_258_2581)"><path fill-rule="evenodd" clip-rule="evenodd" d="M73.33 25.413V1.729H0v23.684h21.43v114.613h31.455V25.412H73.33zm82.765 114.613V1.729h-31.651v57.913h-14.155V1.729H78.834v138.297h31.455V84.19h14.155v55.836h31.651zm68.218 0v-24.548H193.84V80.56h20.053V56.01H193.84V24.548h30.473V1.728h-61.929v138.298h61.929zm110.483-25.24V84.882c0-6.57-3.932-11.583-12.188-15.214 8.256-3.63 12.188-8.816 12.188-15.213V26.969c0-17.633-17.102-25.24-32.242-25.24h-38.532v138.298h38.532c15.14 0 32.242-7.604 32.242-25.24zm-29.489-62.405c0 3.803-1.967 5.36-5.309 5.36h-4.521V26.276h4.521c3.342 0 5.309 1.556 5.309 5.532V52.38zm0 57.738c0 3.976-1.967 5.532-5.309 5.532h-4.521V82.288h4.521c3.342 0 5.309 1.559 5.309 5.532v22.299zm112.06 2.768V28.87c0-14.003-16.515-28.87-37.354-28.87-20.84 0-37.354 14.867-37.354 28.87v84.017c0 14.001 16.514 28.868 37.354 28.868 20.839 0 37.354-14.867 37.354-28.868zm-31.259 1.035c0 2.42-2.753 4.149-6.095 4.149-3.342 0-6.095-1.729-6.095-4.149v-86.09c0-2.42 2.753-4.148 6.095-4.148 3.342 0 6.095 1.729 6.095 4.149v86.089zm115.006.691V1.729h-28.901v112.193c0 2.42-2.751 4.149-6.093 4.149s-6.095-1.729-6.095-4.149V1.729h-30.277v112.884c0 14.003 15.533 27.142 36.372 27.142s34.994-13.139 34.994-27.142zm87.084 25.413L542.984 1.729h-31.455l45.018 138.297h31.651zm85.325-25.24V26.968c0-17.633-19.265-25.24-34.402-25.24h-41.09v138.298h41.09c15.137 0 34.402-7.604 34.402-25.24zm-31.652-4.667c0 3.976-1.965 5.532-5.307 5.532h-7.077V26.277h7.077c3.342 0 5.307 1.556 5.307 5.532v78.31zm114.223 29.907L734.862 1.729h-37.551l-20.839 138.297h27.917l2.949-21.609h14.155l1.967 21.609h32.634zm-36.372-46.155h-9.828l5.897-45.466 3.931 45.466zm119.137 46.155c-1.768-6.739-3.932-14.349-3.932-23.165V88.339c0-6.567-5.702-11.58-13.762-15.213 8.06-3.63 13.173-8.644 13.173-15.213V26.968c0-17.633-18.283-25.24-33.422-25.24H762.38v138.298h31.458V84.19h4.126c4.329 0 6.49 2.42 6.49 5.36v29.04c0 7.26 1.574 15.385 3.932 21.436h30.473zm-35.191-84.188c0 3.977-1.964 5.532-5.306 5.532h-4.524V26.277h4.524c3.342 0 5.306 1.556 5.306 5.532v24.03zm116.78-54.11h-28.901l-10.813 46.158L868.743 1.73H838.66l25.166 78.658v59.639h30.473v-59.64L920.448 1.73z" fill="#fff"/></g><defs><clipPath id="clip0_258_2581"><path fill="#fff" d="M0 0h922v144.062H0z"/></clipPath></defs></svg>