<svg xmlns="http://www.w3.org/2000/svg" width="142.6" height="55" viewBox="0 0 167.173 64.43"><g class="fill-black dark:fill-white"><path data-name="Path 1" d="m235.254 235.274.063-14.826a3.046 3.046 0 0 1 3.147-2.826 2.885 2.885 0 0 1 3.123 2.669l-.065 14.528q-3.136.213-6.269.454m3.232-22.628c-4.863-.025-8.833 3.544-8.85 7.961l-.121 31q2.834-.408 5.672-.777l.045-10.527q3.133-.3 6.268-.555l-.046 10.315q2.842-.326 5.687-.613l.129-29.283c.018-4.128-3.923-7.5-8.785-7.52" transform="translate(-205.396 -190.3)"></path><path data-name="Path 2" d="M896.967 212.646c-4.862.006-8.813 3.2-8.808 7.114l.03 20.97c0 3.92 3.985 7.19 8.87 7.419s8.843-2.754 8.828-6.78l-.022-6.3q-2.848-.119-5.7-.212l.019 6.238c0 1.414-1.4 2.5-3.14 2.428s-3.15-1.254-3.153-2.655l-.047-21.074a2.865 2.865 0 0 1 3.131-2.525 2.928 2.928 0 0 1 3.145 2.583l.016 5.446q2.846.053 5.691.121l-.02-5.5c-.015-4.024-3.982-7.287-8.844-7.276" transform="translate(-794.826 -190.3)"></path><path data-name="Path 3" d="M1440.856 228.127v-6.663a8.779 8.779 0 0 0-8.818-8.819c-4.864.031-8.807 3.693-8.792 8.166l.078 24.072c.015 4.475 3.967 8.762 8.792 9.685s8.738-2.207 8.74-7.109v-7.634q-2.823-.362-5.65-.7 0 3.718.009 7.437a2.55 2.55 0 0 1-3.11 2.545 3.73 3.73 0 0 1-3.124-3.461l-.06-24.642a2.97 2.97 0 0 1 3.125-2.9 3.189 3.189 0 0 1 3.136 3.131q0 3.246.008 6.492 2.833.192 5.664.4" transform="translate(-1273.683 -190.299)"></path><path data-name="Path 4" d="M467.98 216.378h-5.683l-.147 35.776q7.624-.642 15.264-1l.013-4.631q-4.782.2-9.56.489l.114-30.634" transform="translate(-413.584 -193.64)"></path><path data-name="Path 5" d="M1098.649 221.129q2.795.031 5.59.067l.135 31.663q2.847.261 5.692.562l-.143-32.146q2.663.04 5.325.084l-.022-4.944q-8.3-.011-16.6-.018l.019 4.731" transform="translate(-983.18 -193.658)"></path><path data-name="Path 6" d="M1305.647 254.872q2.838.373 5.672.786l-.153-39.017-5.683-.008.164 38.239" transform="translate(-1168.296 -193.868)"></path><path data-name="Path 7" d="m659.432 233.27.018-13.513c0-1.395 1.411-2.533 3.141-2.536s3.137 1.127 3.137 2.517q0 6.739-.006 13.478-3.145.013-6.29.054m3.163-20.624c-4.862-.005-8.824 3.2-8.834 7.145l-.059 27.821q2.854-.1 5.711-.165l.013-9.595q3.147-.05 6.294-.066v9.569q2.856-.02 5.712 0l-.012-27.617c0-3.912-3.96-7.092-8.821-7.092" transform="translate(-585.007 -190.3)"></path><path data-name="Path 8" d="M1304.338 3.847A3.847 3.847 0 1 1 1300.492 0a3.847 3.847 0 0 1 3.847 3.847" transform="translate(-1160.386)"></path><path data-name="Path 9" d="M9.021 232.8v2.692l2.872 2.459-.024 10.219q-1.706.258-3.409.529a2.316 2.316 0 0 1-2.819-2.312l.032-25.15a3.189 3.189 0 0 1 3.136-3.131 2.97 2.97 0 0 1 3.125 2.9l-.01 4.056q2.836-.149 5.674-.287l.013-3.963c.015-4.473-3.928-8.135-8.792-8.166A8.779 8.779 0 0 0 0 221.464v25.815c0 4.737 3.785 7.774 8.449 6.887q4.523-.828 9.059-1.556l.066-20.508z" transform="translate(0 -190.299)"></path></g></svg>